<?xml version="1.0" encoding="utf-8"?>
<!-- Generator: Adobe Illustrator 15.0.0, SVG Export Plug-In . SVG Version: 6.00 Build 0)  -->
<!DOCTYPE svg PUBLIC "-//W3C//DTD SVG 1.1//EN" "http://www.w3.org/Graphics/SVG/1.1/DTD/svg11.dtd">
<svg version="1.1" xmlns="http://www.w3.org/2000/svg" xmlns:xlink="http://www.w3.org/1999/xlink" x="0px" y="0px" width="2589px"
	 height="1198px" viewBox="0 0 2589 1198" enable-background="new 0 0 2589 1198" xml:space="preserve">
<g id="Layer_2" display="none">
	<rect y="1" display="inline" fill="#FF3C00" width="2600" height="1200"/>
</g>
<g id="Layer_1" display="none">
	<path display="inline" fill="none" stroke="#000000" stroke-width="3" stroke-miterlimit="10" d="M145.333-279.167
		c0,94.89-0.691,189.797-0.46,284.682c0.42,173.267,60.979,371.854,123.014,533.357c28.538,74.296,53.729,150.473,64.622,229.788
		c10.862,79.093-8.388,143.195-28.205,219.216c-13.896,53.309-26.021,103.599-51.127,153.273
		c-10.415,20.605-23.202,34.974-24.51,58.851"/>
	<path display="inline" fill="none" stroke="#000000" stroke-width="3" stroke-miterlimit="10" d="M457.833,1200
		c14.875-35.051,4.164-95.831,4.167-132.125c0.02-232.844-9.585-464.769,36.684-694.375
		c25.937-128.709,61.627-255.359,88.348-383.908c15.864-76.315,49.726-198.414,23.525-276.647
		c-12.629-37.708-48.419-41.234-65.223-71.279"/>
	<path display="inline" fill="none" stroke="#000000" stroke-width="3" stroke-miterlimit="10" d="M837-412.5
		c20.531,61.377-5.002,148.319-15.693,209.027c-48.915,277.767-76.469,552.895-79.927,835.254
		c-1.909,155.912-21.147,328.235,41.995,475.239c12.866,29.953,34.21,59.15,32.792,92.979"/>
	<path display="inline" fill="none" stroke="#000000" stroke-width="3" stroke-miterlimit="10" d="M1170.333,1200
		c-104.744-80.606-106.299-202.298-94.559-329.145c8.262-89.268,29.269-195.852,64.605-278.975
		c13.835-32.544,48.279-54.196,61.012-81.895c10.574-23,4.949-65.273,9.585-91.904c10.372-59.571,10.12-118.405,9.491-179.01
		c-0.88-84.813-42.174-165.829-75.35-242.735c-31.97-74.112-91.853-269.535,12.715-317.17"/>
	<path display="inline" fill="none" stroke="#000000" stroke-width="3" stroke-miterlimit="10" d="M1449.5,1200
		c23.254-69.455-55.411-135.81-93.105-186.67c-55.24-74.533-99.977-184.476-69.24-280.279
		c12.426-38.731,61.118-73.219,88.086-103.372c40.872-45.699,84.599-90.257,123.83-137.182
		c66.606-79.67,132.327-216.33,79.938-317.936c-52.946-102.685-159.067-136.41-162.842-259.169
		c-1.165-37.896-3.376-73.948,15.049-108.438c21.839-40.877,55.023-69.255,71.473-114.954c10.466-29.077,38.511-175.857-24.021-167"
		/>
	<path display="inline" fill="none" stroke="#000000" stroke-width="3" stroke-miterlimit="10" d="M1753.667-341.667
		c-65.998,51.553-89.389,241.773-50.356,325.637c57.325,123.165,135.666,214.714,138.221,358.098
		c1.096,61.484-29.151,112.741-29.517,174.013c-0.371,62.311-6.778,128.008,6.798,188.856
		c19.671,88.168,62.538,170.083,83.283,257.821c18.292,77.366,14.099,158.33,14.071,237.241"/>
	<path display="inline" fill="none" stroke="#000000" stroke-width="3" stroke-miterlimit="10" d="M2099.5,1200
		c-1.326-49.092-35.317-97.22-45.092-146.271c-14.58-73.162-22.903-154.179-25.979-228.729
		c-6.109-148.053,94.151-244.844,136.59-376.861c37.372-116.257,9.646-284.565-43.371-390.386
		c-37.427-74.703-81.453-135.121-108.898-215.725c-12.301-36.126-21.202-89.683-46.582-117.029"/>
	<path display="inline" fill="none" stroke="#000000" stroke-width="3" stroke-miterlimit="10" d="M2249.5-75
		c2.176,55.311-18.58,110.156-21.553,165.82c-3.931,73.588-2.83,152.283,8.459,225.024
		c24.679,159.017,80.438,284.702,137.643,432.696c57.678,149.22,58.785,294.385,58.785,451.46"/>
	<path display="inline" fill="none" stroke="#000000" stroke-width="3" stroke-miterlimit="10" d="M2537,1200
		c0-128.033-8.562-255.729-8.318-383.714c0.082-42.984-3.477-85.81,7.925-127.644c11.4-41.826,35.098-79.586,46.31-121.604
		c25.195-94.43,42.436-244.519,4.33-335.494c-36.368-86.824-131.791-117.61-179.412-189.877"/>
	<path display="inline" fill="none" stroke="#000000" stroke-width="3" stroke-miterlimit="10" d="M2387-20.833
		c0.557,35.037-31.12,51.494-45.419,79.826c-24.151,47.855-17.135,110.48-17.081,161.998c0.124,118.584,2.596,226.15-54.263,333.719
		c-24.241,45.861-58.92,76.162-90.776,116.042c-57.14,71.526-94.153,160.285-100.246,251.292
		c-4.268,63.762-4.546,131.561,7.8,194.158c5.589,28.334,14.938,54.444,12.485,83.799"/>
	<path display="inline" fill="none" stroke="#000000" stroke-width="3" stroke-miterlimit="10" d="M2003.667,1200
		c0-136.183-9.978-269.497-15.792-405.094c-6.386-148.882,66.072-287.461,43.699-443.483
		c-19.441-135.577-90.743-245.55-62.762-385.505c15.854-79.296,45.245-145.423,95.626-208.282
		c32.961-41.124,79.322-79.859,105.896-124.303"/>
	<path display="inline" fill="none" stroke="#000000" stroke-width="3" stroke-miterlimit="10" d="M1620.334,1200
		c0-136.198-16.427-279.624,25.11-410.099c37.247-116.997,98.385-231.148,75.269-359.156
		c-15.356-85.037-89.784-155.751-110.033-237.966c-9.022-36.632-6.958-88.015,4.908-122.175
		c10.465-30.129,35.124-59.437,50.379-87.485c25.136-46.218,41.089-100.974,75.2-141.453"/>
	<path display="inline" fill="none" stroke="#000000" stroke-width="3" stroke-miterlimit="10" d="M1507.834,1200
		c0-151.359-14.069-307.528,57.674-447.216c21.888-42.615,65.256-88.579,107.776-116.537c34.135-22.444,72.235-35.113,105.42-60.467
		c49.791-38.042,88.909-87.028,133.468-130.312c38.658-37.553,84.954-72.139,103.462-125.272
		c38.886-111.636-7.518-227.613-56.851-325.684c-14.82-29.461-36.293-67.539-67.2-83.652c-22.116-11.53-49.749-2.958-70.798-10.653
		c-23.324-8.527-39.5-39.306-71.285-41.875"/>
	<path display="inline" fill="none" stroke="#000000" stroke-width="3" stroke-miterlimit="10" d="M1178.667,1200
		c40.246-211.274,22.811-473.752-88.256-662.946c-39.554-67.377-69.44-80.118-132.111-112.024
		c-16.149-8.223-29.496-19.359-43.179-32.234c-47.199-44.416-83.157-104.445-94.358-168.809
		c-21.212-121.885,24.235-240.068,50.996-356.112c20.513-88.956,16.023-196.585,52.742-280.375"/>
	<path display="inline" fill="none" stroke="#000000" stroke-width="3" stroke-miterlimit="10" d="M907.833,1200
		c0-31.277,1.559-62.906-0.015-94.136c-3.184-63.182-36.663-114.95-75.312-165.844c-57.547-75.78-150.957-157.225-166.541-257.317
		c-8.491-54.534,8.569-83.174,32.688-127.312c24.439-44.723,36.133-92.377,68.045-134.224
		c41.236-54.071,96.946-91.912,136.676-148.279c31.954-45.334,54.106-97.685,91.201-139.148
		c16.715-18.685,38.219-32.812,50.756-54.574"/>
	<path display="inline" fill="none" stroke="#000000" stroke-width="3" stroke-miterlimit="10" d="M616.167,1200
		c0-197.32-29.058-423.478,29.167-613.014c10.894-35.463,27.31-60.624,29.167-99.204c4.264-88.588-64.434-136.546-105.272-205.703
		c-76.198-129.036,59.273-326.497,88.605-452.914"/>
	<path display="inline" fill="none" stroke="#000000" stroke-width="3" stroke-miterlimit="10" d="M378.667-154.167
		c-78.165,156.376-47.01,352.349-12.471,518.183c16.218,77.866,63.391,139.658,50.052,220.171
		c-13.603,82.107-109.409,167.328-158.075,235.742C171.105,942.327,162,1053.396,162,1200"/>
	<path display="inline" fill="none" stroke="#000000" stroke-width="3" stroke-miterlimit="10" d="M220.333-125
		c4.486,46.172-23.851,103.139-54.782,136.551C119.979,60.776,91.434,93.039,75.22,162.062
		C62.011,218.292,51.583,274.69,53.71,332.586c2.119,57.683,37.766,94.619,61.826,146.581
		c17.051,36.823,30.028,80.744,39.139,120.337c9.535,41.435,1.006,88.718,19.067,129.707c15.986,36.281,50.609,66.746,76.588,95.544
		c38.806,43.016,65.593,81.826,89.265,135.323c37.174,84.013,96.409,154.204,130.738,239.922"/>
	<path display="inline" fill="none" stroke="#000000" stroke-width="3" stroke-miterlimit="10" d="M57.833,87.5
		c-35.881,59.049-44.313,148.676-50.29,216.585C-4.559,441.613-3.991,559.178,48.038,689.087
		C115.189,856.751,203.137,1016.024,157.833,1200"/>
	<path display="inline" fill="none" stroke="#000000" stroke-width="3" stroke-miterlimit="10" d="M7.833,1200
		C36.007,1088.121,19.5,973.184,56.869,860.979c18.884-56.704,49.058-91.704,90.06-134.386
		c33.769-35.151,43.229-60.362,55.944-108.278c16.523-62.267,20.366-127.375,30.59-190.72
		c11.724-72.639,33.913-142.756,45.381-215.363c9.679-61.278,15.067-122.289,20.655-184.009C301.747,3.408,299.991-31.83,316.167-50
		"/>
	<path display="inline" fill="none" stroke="#000000" stroke-width="3" stroke-miterlimit="10" d="M382.833,1200
		c0-118.438-9.627-240.146,11.587-356.711c6.789-37.3,8.985-73.341,13.76-110.412c9.648-74.902,52.956-136,74.749-207.416
		c40.477-132.644,87.539-265.733,120.128-399.741c19.652-80.81,53.333-156.176,68.485-238.783
		c13.302-72.518,15.278-142.765,15.457-216.104"/>
	<path display="inline" fill="none" stroke="#000000" stroke-width="3" stroke-miterlimit="10" d="M962,1200
		c12.441-82.022-98.605-167.322-116.734-249.287c-11.941-53.991-17.929-154.951-2.721-208.632
		c13.292-46.916,52.002-90.357,82.814-125.939c84.497-97.579,91.626-229.438,82.771-356.481
		c-6.206-89.025-60.445-178.213-93.077-259.713c-12.972-32.397-52.851-67.593-44.72-104.114"/>
	<path display="inline" fill="none" stroke="#000000" stroke-width="3" stroke-miterlimit="10" d="M987-441.667
		c-16.691,136.944-27.704,276.632-25.743,414.688c2.319,163.285,104.829,297.251,148.366,449.136
		c13.446,46.906,5.702,72.854-3.589,122.383c-18.141,96.704-23.405,188.521-23.185,286.57
		c0.309,137.812,18.183,255.264,104.152,368.891"/>
	<path display="inline" fill="none" stroke="#000000" stroke-width="3" stroke-miterlimit="10" d="M1299.5-687.5
		c1.778,37.368-24.572,68.252-35.876,102.901c-42.44,130.089-36.417,284.364-31.401,418.666
		c5.402,144.641,35.146,295.031,108.84,421.396c42.956,73.658,138.661,138.498,166.345,218.88
		c9.612,27.913-0.125,74.225,0.182,102.353c0.95,87.307,25.118,147.823,68.654,224.06c73.94,129.479,85.441,253.099,85.757,399.245"
		/>
	<path display="inline" fill="none" stroke="#000000" stroke-width="3" stroke-miterlimit="10" d="M1549.5,1198.675
		c-81.153,18.658-165.975-164.947-183.261-217.396c-42.129-127.825-33.567-264.982-33.376-397.537
		c0.188-130.725-21.502-270.655,40.152-390.156c21.079-40.855,77.291-96.354,87.151-138.222
		c6.745-28.641-34.604-87.799-44.667-110.017c-30.8-68.006-55.244-138.902-65.912-212.978
		c-19.695-136.753-25.151-282.828-25.088-421.196"/>
	<path display="inline" fill="none" stroke="#000000" stroke-width="3" stroke-miterlimit="10" d="M1778.667,1200
		c0-125.021-10.942-250.208-8.578-374.644c2.108-111.002,40.024-224.455,91.6-322.429c17.806-33.825,53.632-71.277,65.482-106.895
		c10.901-32.765,0.912-81.312-2.188-114.455c-10.008-107.006-26.171-227.348-72.065-325.538
		c-30.35-64.933-91.254-117.178-118.884-180.974c-33.394-77.106-22.589-199.411-25.652-280.303
		c-2.033-53.689-12.705-143.862,24.452-190.597"/>
	<path display="inline" fill="none" stroke="#000000" stroke-width="3" stroke-miterlimit="10" d="M1949.5-454.167
		c-144.572,343.755-5.836,719.571,91.533,1054.316c32.645,112.228,83.775,215.468,117.148,322.106
		c31.359,100.205,107.45,179.708,141.318,277.744"/>
	<path display="inline" fill="none" stroke="#000000" stroke-width="3" stroke-miterlimit="10" d="M2220.334,1200
		c0-94.461-0.012-188.921,0-283.382c0.018-139.479,0.455-270.24,28.075-407.511c12.269-60.974,34.34-119.928,42.417-180.088
		c23.604-175.806-7.074-349.522-8.074-525.15c-0.771-135.37,4.001-240.309,79.248-349.703"/>
	<path display="inline" fill="none" stroke="#000000" stroke-width="3" stroke-miterlimit="10" d="M2607.834,1200
		c4.562-90.485-47.546-174.104-77.105-257.312c-23.28-65.531-30.589-126.275-77.407-174.653
		c-76.675-79.229-132.151-180.364-196.696-269.94c-54.619-75.801-114.021-150.858-115.808-247.338
		c-1.407-76.028,43.078-146.823,71.331-216.088c48.014-117.715,130.849-187.44,223.741-270.679
		c22.991-20.602,68.692-48.996,74.396-82.219c5.936-34.583-30.672-97.462-39.188-130.169
		c-18.842-72.379-29.107-144.299-113.264-155.769"/>
	<path display="inline" fill="none" stroke="#000000" stroke-width="3" stroke-miterlimit="10" d="M199.5-733.333
		c-8.157,114.471,69.598,295.896,117.401,408.261c67.866,159.529,194.264,322.169,195.084,501.07
		c0.558,121.485,12.222,233.317,29.708,353.548c21.522,147.984,16.176,297.18,16.14,446.237
		c-0.024,98.042-0.268,160.057,58.333,224.217"/>
	<path display="inline" fill="none" stroke="#000000" stroke-width="3" stroke-miterlimit="10" d="M703.667-654.167
		c4.455,50.588-25.449,108.608-42.148,154.758c-35.328,97.638-87.026,197.106-150.359,279.357
		C456.252-148.743,431.263-93.82,400.205-8.468c-28.312,77.805-73.131,145.621-96.94,225.121
		c-20.713,69.164-53.441,136.907-71.352,208.096c-26.44,105.088-32.898,213.648-57.294,319.306
		c-21.871,94.722-34.611,182.038-28.856,280.116c3.461,58.984,23.958,117.156,24.571,175.829"/>
	<path display="inline" fill="none" stroke="#000000" stroke-width="3" stroke-miterlimit="10" d="M1241.167,1200
		c1.118-57.348-45.944-123.056-65.74-176.017c-29.032-77.674-65.172-157.567-113.642-225.756
		c-48.076-67.635-104.805-119.832-155.012-186.477c-46.091-61.182-100.356-117.934-131.398-187.827
		c-30.764-69.264-54.214-140.502-63.561-215.74C684.135-14.632,672.726-281.398,762-491.667"/>
	<path display="inline" fill="none" stroke="#000000" stroke-width="3" stroke-miterlimit="10" d="M978.667,1200
		c0-130.137-2.289-259.999,12.217-388.591c5.64-49.991,20.834-97.085,29.545-146.366c7.247-40.996,7.537-85.539,28.691-122.628
		c32.46-56.91,106.231-122.484,160.248-158.749c102.542-68.843,231.259-47.129,344.201-81.071
		c95.342-28.652,130.427-94.579,150.187-186.698c22.759-106.104,25.028-209.214,24.866-317.266
		c-0.051-34.153,13.215-89.658-16.623-115.298"/>
	<path display="inline" fill="none" stroke="#000000" stroke-width="3" stroke-miterlimit="10" d="M1837,1200
		c28.104-76.065-31.65-159.287-78.003-215.386c-23.528-28.477-43.314-41.971-50.414-79.142
		c-8.022-41.997-6.073-105.695,2.942-146.71c16.743-76.184,100.226-105.889,143.27-167.229
		c42.682-60.824,38.48-121.831,2.424-187.457c-56.586-102.987-215.031-99.413-314.932-124.939
		c-192.009-49.062-320.144-271.624-196.953-445.804"/>
	<path display="inline" fill="none" stroke="#000000" stroke-width="3" stroke-miterlimit="10" d="M791.167,1200
		c-77.736-116.022-124.775-229.525-90.111-375.675c15.735-66.342,53.137-124.653,85.536-182.925
		c43.652-78.511,53.806-174.912,41.742-264.889c-15.366-114.613-118.977-177.955-167.631-273.071
		C580.391-53.564,548.597-286.639,687-425"/>
	<path display="inline" fill="none" stroke="#000000" stroke-width="3" stroke-miterlimit="10" d="M2016.167,1200
		c0.369-70.501-9.39-133.908,30.417-195.565c57.043-88.354,139.033-158.21,186.273-255.236
		c27.68-56.85,77.768-183.516,46.161-243.305c-34.925-66.07-174.142-114.67-236.941-151.252
		c-81.642-47.557-117.803-103.613-140.327-196.391c-52.488-216.207,35.646-406.173,196.013-545.713
		c33.142-28.837,20.905-10.137,27.277-40.898c-8.041-28.851-18.975-56.626-32.802-83.327
		c-27.354-56.08-55.641-111.685-84.862-166.813c-55.399-99.732-118.483-170.078-237.042-163.166"/>
	<path display="inline" fill="none" stroke="#000000" stroke-width="3" stroke-miterlimit="10" d="M-213-100
		c6.384,12.884,18.202,19.204,30.964,28.252C-107.375-18.816-29.71-15.215,33.674,61.779
		c52.178,63.382,72.578,134.85,106.935,206.689c34.733,72.625,92.611,129.858,150.661,185.44
		c65.119,62.35,159.051,110.688,214.663,174.27c68.219,77.996,121.995,167.694,195.078,244.449
		C802.066,978.76,902.909,1082.767,991.167,1200"/>
	<path display="inline" fill="none" stroke="#000000" stroke-width="3" stroke-miterlimit="10" d="M857.833,1200
		c-18.138-356.449,329.603-625.189,520.333-881.487c132.432-177.958,263.932-374.114,296.14-598.261
		c13.642-94.942-0.478-190.505-83.139-249.419"/>
	<path display="inline" fill="none" stroke="#000000" stroke-width="3" stroke-miterlimit="10" d="M1449.5-716.667
		c-3.417,17.858,2.793,28.004,9.434,44.483c19.477,24.398,37.719,49.698,54.728,75.9c88.856,135.586,162.921,284.074,243.693,424.35
		c89.912,153.316,177.896,307.732,263.953,463.247c88.109,163.561,158.749,330.844,237.421,498.532
		c68.182,145.332,148.165,282.245,244.938,410.155"/>
</g>
<g id="Layer_2_copy">
</g>
<g id="Layer_1_copy">
	<g>
		<path fill="#FF3C00" d="M752.791,373.111c-1.563,24.238-2.937,48.458-4.142,72.672c5.009-8.703,10.548-17.252,16.858-25.525
			c1.396-1.83,2.815-3.64,4.246-5.438C763.646,400.705,757.994,386.809,752.791,373.111z"/>
		<path fill="#FF3C00" d="M740.879,713.011c-0.078,2.547-0.156,5.095-0.234,7.645c9.268-17.669,19.123-34.975,28.864-52.075
			c5.214-9.154,10.606-18.62,15.771-27.908c20.935-37.651,34.94-81.294,41.657-128.435c-20.357-27.589-39.053-56.452-52.934-87.705
			c-0.978-2.202-1.942-4.397-2.898-6.589c-1.08,1.369-2.154,2.744-3.212,4.133c-7.477,9.805-13.872,20.021-19.581,30.439
			c-2.892,59.745-4.699,119.453-5.432,179.284C742.553,658.465,741.702,686.194,740.879,713.011z"/>
		<path fill="#FF3C00" d="M1023.567,633.153c4.088-31.239,8.315-63.542,24.251-91.481c6.146-10.775,13.748-21.846,22.401-32.96
			c-20.742-28.403-40.639-43.704-67.149-58.665c-12.526,67.377-37.576,122.038-76.576,167.076l-3.421,3.947
			c-1.255,1.447-2.527,2.916-3.807,4.394c19.956,25.245,40.867,48.804,61.201,71.701c8.389,9.446,16.864,18.993,25.317,28.709
			c0.147-0.627,0.294-1.257,0.441-1.883c4.522-19.291,9.198-39.239,12.728-59.209
			C1020.784,654.418,1022.199,643.608,1023.567,633.153z"/>
		<path fill="#FF3C00" d="M832.428,353.043c-1.919,1.854-3.844,3.716-5.771,5.583c1.281,5.77,2.355,11.655,3.164,17.686
			c6.256,46.662,6.244,92.312,0.264,135.133c13.302,17.973,27.302,35.419,41.12,52.632c12.227,15.23,24.87,30.98,36.766,46.771
			c3.104,4.12,6.241,8.189,9.402,12.218c1.153-1.331,2.299-2.654,3.433-3.961l3.42-3.945
			c42.669-49.275,65.289-106.752,76.307-166.533c-10.216-5.671-21.414-11.352-34.008-17.738c-2.895-1.469-5.861-2.973-8.906-4.522
			c-17.254-8.785-31.116-20.802-43.526-32.479c-21.32-20.063-39.753-42.602-54.92-67.12
			C850.319,335.747,841.321,344.45,832.428,353.043z"/>
		<path fill="#FF3C00" d="M904.603,273.752c-13.041,18.501-27.936,35.145-43.335,50.887c14.883,24.136,33.336,46.789,54.881,67.063
			c12.248,11.524,25.914,23.375,42.832,31.99c3.042,1.549,6.008,3.053,8.901,4.521c12.257,6.216,23.204,11.77,33.216,17.291
			c10.948-61.725,9.715-125.792,5.536-185.739c-2.484-35.64-12.67-71.227-26.12-106.433c-15.349,20.423-28.368,42.705-41.05,64.429
			C928.546,236.461,917.257,255.798,904.603,273.752z"/>
		<path fill="#FF3C00" d="M833.702,939.113c3.535,4.655,7.096,9.403,10.646,14.239c-0.187-0.771-0.376-1.544-0.547-2.315
			c-11.112-50.242-18.467-153.709-2.699-209.365c12.123-42.785,45.58-83.1,74.273-116.296c-3.294-4.193-6.565-8.429-9.8-12.723
			c-11.868-15.754-24.497-31.484-36.709-46.698c-13.221-16.469-26.61-33.147-39.402-50.307
			c-6.929,46.361-20.894,89.31-41.561,126.481c-5.172,9.302-10.568,18.774-15.786,27.935
			c-10.738,18.852-21.614,37.953-31.681,57.506c-0.971,32.225-1.83,64.667-1.792,97.035c15.357,19.704,31.639,38.617,47.27,56.774
			C803.131,901.38,819.393,920.271,833.702,939.113z"/>
		<path fill="#FF3C00" d="M699.971,556.11l-2.483,4.537c-22.978,41.963-38.158,69.686-30.04,121.825
			c5.712,36.686,22.267,71.229,43.555,103.767c7.425-20.403,16.542-40.148,26.454-59.44c0.14-4.631,0.282-9.259,0.423-13.88
			c0.822-26.803,1.673-54.519,1.999-81.156c0.708-57.758,2.427-115.402,5.144-173.075c-7.789,14.981-14.338,30.289-20.757,45.321
			C716.922,521.205,709.328,538.987,699.971,556.11z"/>
		<path fill="#FF3C00" d="M773.224,415.294c1.159,2.667,2.33,5.339,3.521,8.021c13.353,30.065,31.238,57.958,50.778,84.65
			c5.522-41.66,5.395-85.971-0.677-131.255c-0.712-5.314-1.643-10.511-2.731-15.623C806.57,378.123,788.905,395.804,773.224,415.294
			z"/>
		<path fill="#FF3C00" d="M737.247,733.834c-9.08,18.055-17.388,36.51-24.184,55.525c7.106,10.67,14.704,21.123,22.577,31.363
			C735.67,791.737,736.394,762.706,737.247,733.834z"/>
		<path fill="#FF3C00" d="M513.485,175.991c0.163,35.503,1.239,70.764,3.324,107.061c8.525-37.012,17.466-73.812,26.243-109.931
			c1.283-5.28,2.573-10.595,3.862-15.905c3.656-29.993,11.698-61.001,21.921-92.069C573.767,43.782,578.543,22.37,583.079,1H477.324
			C498.843,57.811,513.21,115.991,513.485,175.991z"/>
		<path fill="#FF3C00" d="M635.082,23.791c-1.106,3.377-2.216,6.768-3.326,10.167c8.879,23.789,19.051,46.843,30.283,68.8
			c11.849,23.165,27.182,44.678,43.539,65.323C698.974,108.846,694.529,53.356,692.208,1h-49.7
			C640.04,8.641,637.554,16.239,635.082,23.791z"/>
		<path fill="#FF3C00" d="M519.619,403.993c1.079-3.371,2.16-6.755,3.241-10.134c-3.272-31.095-5.851-60.771-7.792-89.651
			c-5.224,23.188-10.246,46.421-14.915,69.589c-11.339,56.27-19.313,112.995-24.899,169.883c2.225-6.163,4.325-12.379,6.24-18.656
			C493.793,484.722,506.922,443.682,519.619,403.993z"/>
		<path fill="#FF3C00" d="M1043.466,258.471c-17.756-39.4-35.776-79.389-50.53-120.567c-3.548,4.102-6.97,8.312-10.279,12.615
			c13.868,36.001,24.42,72.446,26.971,109.038c5.265,75.545,3.361,135.167-5.988,187.36c27.135,15.203,47.401,30.588,68.51,59.337
			c12.582-15.889,27.254-31.832,42.844-47.107c-0.797-11.135-2.901-22.932-6.812-36.576
			C1092.034,366.24,1067.343,311.454,1043.466,258.471z"/>
		<path fill="#FF3C00" d="M592.41,1h-6.264c-2.704,12.754-5.482,25.519-8.344,38.286C582.456,26.466,587.376,13.682,592.41,1z"/>
		<path fill="#FF3C00" d="M753.276,365.877c5.64,15.18,11.842,30.605,18.605,46.302c15.938-19.631,33.806-37.402,51.49-54.547
			c-10.164-44.061-33.688-80.834-60.438-115.067C759.192,283.758,755.982,324.844,753.276,365.877z"/>
		<path fill="#FF3C00" d="M545.147,177.207c-9.301,38.274-18.762,77.291-27.699,116.496c1.872,29.934,4.431,60.654,7.742,92.871
			c12.221-38.238,24.513-76.975,36.275-115.907C547.767,241.972,543.371,210.367,545.147,177.207z"/>
		<path fill="#FF3C00" d="M1073.977,508.771c5.778,8.062,11.635,17.143,17.728,27.522c3.691,6.287,7.288,12.697,10.806,19.207
			c0.668-3.75,1.347-7.496,2.049-11.238c0.996-5.311,1.974-10.35,2.911-15.172c4.975-25.622,8.696-44.825,7.756-65.979
			C1100.2,477.955,1086.092,493.396,1073.977,508.771z"/>
		<path fill="#FF3C00" d="M628.652,33.798C624.686,22.994,620.997,12.055,617.591,1h-21.953
			c-8.54,21.479-16.764,43.252-23.918,64.988c-7.112,30.81-14.498,61.481-21.835,91.711c-4.7,38.704-1.997,75.624,12.89,108.645
			c14.114-46.896,27.417-94.062,38.826-140.978C609.152,94.313,618.913,63.636,628.652,33.798z"/>
		<path fill="#FF3C00" d="M632.23,22.857c2.372-7.244,4.756-14.532,7.124-21.857h-18.911c3.002,9.568,6.219,19.049,9.638,28.42
			C630.799,27.228,631.516,25.04,632.23,22.857z"/>
		<path fill="#FF3C00" d="M1084.365,835.066c0.62,132.318,17.636,243.664,95.115,352.162c6.543-36.893,11.524-76.844,14.398-118.751
			c-7.631-15.361-14.641-30.017-19.857-43.969C1145.938,949.375,1116.42,886.965,1084.365,835.066z"/>
		<path fill="#FF3C00" d="M1079.806,822.216c0.507-3.753,1.038-7.496,1.581-11.233c0.327-53.885,2.501-102.439,6.729-148.276
			c-22.306,27.409-44.033,55.341-64.663,83.838c13.596,16.235,26.937,33.062,39.555,50.814
			C1068.688,805.35,1074.283,813.639,1079.806,822.216z"/>
		<path fill="#FF3C00" d="M1103.966,564.605c-4.934,28.852-8.886,58.054-11.909,88.388c11.333-13.778,22.821-27.454,34.407-41.041
			C1119.555,595.871,1112.068,580.067,1103.966,564.605z"/>
		<path fill="#FF3C00" d="M1091.522,658.528c-3.925,41.094-6.181,84.324-6.913,131.612c10.33-63.038,25.527-122.803,44.114-172.92
			c-0.302-0.72-0.615-1.435-0.92-2.152C1115.604,629.41,1103.485,643.895,1091.522,658.528z"/>
		<path fill="#FF3C00" d="M709.701,178.011c1.183,10.208,2.388,20.218,3.601,29.987c6.016,48.43,18.351,98.255,37.431,150.948
			c2.683-39.864,5.846-79.782,9.505-119.8c-9.316-11.775-18.972-23.27-28.559-34.672
			C724.354,195.76,716.963,186.958,709.701,178.011z"/>
		<path fill="#FF3C00" d="M1334.505,338.116c-1.257,12.331-2.131,24.74-2.711,37.196c11.497-14.072,22.634-28.094,33.372-42.105
			C1354.91,334.631,1344.679,336.239,1334.505,338.116z"/>
		<path fill="#FF3C00" d="M1328.615,379.194c0.562-13.564,1.457-27.08,2.806-40.507c-39.65,7.544-78.315,19.435-113.673,41.377
			c-1.348,12.747-3.074,25.529-5.293,38.275c-1.785,10.254-2.03,22.725-2.288,35.928c-0.405,20.656-0.824,42.016-7.412,56.346
			c-6.095,13.259-16.868,24.92-28.272,37.267c-12.538,13.573-25.503,27.608-32.722,44.588c-0.449,1.055-0.889,2.135-1.334,3.201
			c24.518-28.436,49.355-56.498,73.965-84.298C1254.551,466.005,1293.192,422.343,1328.615,379.194z"/>
		<path fill="#FF3C00" d="M1129.932,612.567c0.093,0.219,0.186,0.438,0.278,0.658c0.227-0.601,0.457-1.19,0.686-1.788
			C1130.574,611.814,1130.253,612.19,1129.932,612.567z"/>
		<path fill="#FF3C00" d="M1101.665,560.266c-4.039-7.567-8.208-15.061-12.547-22.452c-5.862-9.986-11.505-18.761-17.071-26.571
			c-8.337,10.766-15.671,21.481-21.623,31.916c-15.643,27.427-19.832,59.433-23.882,90.385c-1.373,10.487-2.792,21.331-4.635,31.761
			c-3.544,20.052-8.23,40.041-12.761,59.372c-0.312,1.329-0.624,2.661-0.936,3.994c4.376,5.052,8.744,10.151,13.088,15.31
			c21.413-29.455,44.029-58.364,67.344-86.831C1091.854,623.8,1096.164,591.84,1101.665,560.266z"/>
		<path fill="#FF3C00" d="M1172.278,545.844c11.239-12.166,21.854-23.657,27.75-36.484c6.326-13.761,6.739-34.802,7.138-55.15
			c0.261-13.321,0.508-25.903,2.332-36.384c2.07-11.89,3.71-23.815,5.013-35.717c-1.439,0.924-2.879,1.845-4.307,2.803
			c-28.406,19.071-61.986,45.99-92.185,75.456c1.396,22.909-2.535,43.177-7.606,69.295c-0.935,4.817-1.912,9.85-2.907,15.153
			c-0.935,4.981-1.835,9.97-2.71,14.966c8.458,15.935,16.41,32.495,23.811,49.656c1.879-2.199,3.762-4.396,5.646-6.591
			c1.562-3.914,3.141-7.778,4.746-11.553C1146.421,573.835,1159.566,559.605,1172.278,545.844z"/>
		<path fill="#FF3C00" d="M877.104,1022.186c-12.945-20.189-24.192-40.515-30.461-60.567c-5.089-7.086-10.237-13.983-15.33-20.69
			c-14.253-18.77-30.486-37.626-47.673-57.591c-14.855-17.256-30.294-35.191-44.982-53.848c0.113,27.988,0.928,55.908,2.955,83.57
			c42.815,44.963,86.063,90.72,128.152,137.881C871.956,1041.352,874.404,1031.765,877.104,1022.186z"/>
		<path fill="#FF3C00" d="M878.202,1018.325c0.423-1.462,0.85-2.924,1.284-4.386c-7.919-15.192-17.01-29.614-26.5-43.325
			C859.143,986.412,868.096,1002.394,878.202,1018.325z"/>
		<path fill="#FF3C00" d="M881.682,1018.234c-0.372,1.269-0.736,2.539-1.1,3.81c3.024,4.687,6.135,9.367,9.295,14.036
			C887.357,1030.016,884.608,1024.07,881.682,1018.234z"/>
		<path fill="#FF3C00" d="M1007.366,732.281c-3.47,14.87-6.908,29.99-9.782,45.294c7.133-10.438,14.439-20.804,21.894-31.102
			C1015.458,741.694,1011.417,736.969,1007.366,732.281z"/>
		<path fill="#FF3C00" d="M722.45,892.951c5.292,5.552,10.596,11.115,15.906,16.689c-1.931-27.82-2.665-55.885-2.713-84.006
			c-8.296-10.673-16.319-21.579-23.823-32.729c-3.603,10.411-6.749,20.989-9.304,31.766c-3.184,13.425-5.646,26.549-7.472,39.4
			c2.334,2.521,4.683,5.03,7.054,7.521C708.884,878.72,715.669,885.838,722.45,892.951z"/>
		<path fill="#FF3C00" d="M978.224,699.157c-20.243-22.795-41.058-46.243-60.956-71.384
			c-28.413,32.888-61.386,72.737-73.279,114.717c-15.636,55.188-8.304,157.958,2.742,207.898c0.724,3.274,1.604,6.561,2.622,9.858
			c11.157,15.558,22.02,32.048,31.376,49.582c0.264-0.864,0.521-1.729,0.789-2.595c17.89-57.767,44.73-115.679,82.054-177.046
			c9.518-15.648,19.497-31.121,29.839-46.442c3.231-18.392,7.377-36.515,11.53-54.271
			C996.024,719.204,987.076,709.126,978.224,699.157z"/>
		<path fill="#FF3C00" d="M901.363,1058.061c-0.256-0.369-0.512-0.738-0.768-1.107c3.745,12.273,6.466,25.002,7.87,38.209
			c15.761,18.388,31.28,37.007,46.469,55.893C944.395,1120.07,922.643,1088.725,901.363,1058.061z"/>
		<path fill="#FF3C00" d="M894.569,1048.252c-5.12-7.42-10.199-14.885-15.076-22.37c-2.593,9.278-4.968,18.613-7.107,28.007
			c10.947,12.296,21.814,24.687,32.571,37.185C903.024,1076.204,899.419,1061.938,894.569,1048.252z"/>
		<path fill="#FF3C00" d="M1863.016,503.626c-16.977,32.251-35.414,71.819-51.262,116.286c0.064,4.964,0.18,9.925,0.355,14.876
			c15.318-13.411,29.933-27.692,41.458-44.116c25.267-36.008,34.852-72.856,28.795-112.737c-3.82,4.013-7.61,8.017-11.366,11.993
			C1868.086,494.543,1865.396,499.104,1863.016,503.626z"/>
		<path fill="#FF3C00" d="M1448.865,1140.067c7.731,21.577,8.391,41.491,2.058,60.409l-2.846-0.953
			c7.839-23.412,4.005-46.365-6.021-68.567c-3.123-4.312-6.252-8.794-9.385-13.48c-7.841-11.729-15.235-23.923-22.087-36.071
			c-8.885-11.373-18.364-22.457-27.555-33.202c-10.24-11.973-19.912-23.28-27.841-33.979c-21.35-28.806-50.32-75.2-67.096-132.637
			c-15.864-54.313-16.66-104.443-2.367-148.994c7.007-21.84,25.55-42.496,44.93-61.412c0.079-10.373,0.185-20.725,0.291-31.043
			c0.191-18.524,0.389-37.68,0.416-56.397c0.039-27.031-0.876-54.996-1.761-82.039c-1.276-38.986-2.565-78.464-1.178-117.562
			c-34.77,42.198-72.55,84.896-111.788,129.22c-26.345,29.761-53.223,60.124-79.819,91.153c-1.66,4.17-3.295,8.419-4.906,12.739
			c9.748,23.349,18.519,47.738,26.24,73.056c16.158,52.982,27.805,110.102,34.62,169.769c7.797,68.276,9.208,138.639,4.362,208.21
			c1.55,3.114,3.121,6.255,4.71,9.428c20.446,40.834,41.588,83.058,40.823,122.315l-2.999-0.059
			c0.751-38.518-20.223-80.405-40.506-120.914c-0.819-1.637-1.633-3.262-2.443-4.883c-2.937,39.27-7.873,78.26-14.788,116.452
			c2.051,2.825,4.131,5.647,6.266,8.469l-2.393,1.811c-1.563-2.066-3.101-4.141-4.626-6.219c-0.345,1.864-0.683,3.732-1.037,5.594
			l-2.947-0.561c0.527-2.77,1.045-5.561,1.555-8.366c-36.757-50.926-62.122-105.466-77.401-166.364
			c-13.513-53.858-19.689-113.002-19.987-191.464c-1.562,12.437-2.932,24.94-4.091,37.469
			c-11.17,120.682-13.114,245.402,93.98,327.817l-1.685,2.188h360.983c-6.925-0.896-14.006-3.061-21.222-6.486
			c0.004,1.83,0.009,3.662,0.009,5.486h-3c0-2.32-0.005-4.649-0.011-6.979c-5.979-3.112-12.046-7.065-18.189-11.887
			C1475.311,1171.07,1462.158,1157.297,1448.865,1140.067z"/>
		<path fill="#FF3C00" d="M1719.236,431.012c-8.021-44.424-32.684-85.618-56.533-125.455c-0.627-1.048-1.256-2.098-1.885-3.148
			c-13.227-2.369-26.417-4.522-39.359-6.633c-8.344-1.361-16.547-2.701-24.582-4.066c-2.32,16.318-6.237,33.19-11.785,50.503
			c-14.868,46.403-41.639,95.99-74.421,138.266c4.228,18.619,2.145,42.908,0.269,64.633c-1.002,11.6-1.949,22.556-1.851,31.567
			c0.804,73.8,18.351,128.188,49.023,187.703c1.951-4.108,3.967-8.204,6.062-12.283c21.626-42.105,64.131-88.072,108.286-117.104
			c9.991-6.569,20.424-12.351,30.849-17.8C1720.786,557.354,1730.909,495.65,1719.236,431.012z"/>
		<path fill="#FF3C00" d="M559,975.783v1.138c0,97.479,0.126,156.871,55.659,219.347c-0.084-47.297-1.759-95.306-3.533-146.06
			c-3.298-94.327-6.658-190.575,0.607-283.355c-7.291-9.702-14.496-19.395-21.644-29.018
			c-10.663-14.354-21.472-28.899-32.506-43.378c2.782,69.656,2.308,139.242,1.89,207.531C559.326,926.177,559,951.188,559,975.783z"
			/>
		<path fill="#FF3C00" d="M1566.842,753.47c-2.432,4.733-4.752,9.491-6.989,14.267c5.501,10.54,11.397,21.25,17.693,32.274
			c17.694,30.985,32.382,62.743,44.258,95.757c4.261-36.123,11.197-71.726,22.211-106.321c8.138-25.561,17.571-51.415,26.693-76.419
			c11.023-30.212,22.169-60.771,31.419-91.825c-9.494,5.018-18.954,10.338-28.019,16.298
			C1631.026,665.827,1587.92,712.432,1566.842,753.47z"/>
		<path fill="#FF3C00" d="M250.94,827.685c-0.575-0.642-1.143-1.28-1.724-1.925c-5.843-6.478-12.016-12.925-18.551-19.751
			c-19.894-20.781-40.38-42.188-53.498-66.436c-0.362,1.606-0.718,3.216-1.088,4.819c-16.996,73.611-26.451,135.536-29.285,194.523
			c3.497,11.883,6.711,23.787,9.567,35.704c5.61,23.407,9.67,46.211,12.2,68.521c1.98-14.449,4.413-28.6,7.407-42.568
			C189.429,937.781,213.345,882.577,250.94,827.685z"/>
		<path fill="#FF3C00" d="M147.26,1024.083c1.595,27.182,6.914,54.669,12.057,81.253c0.897,4.639,1.797,9.303,2.684,13.984
			c0.995-22.293,2.584-43.557,5.026-64.153c-3.26-36.322-10.596-71.945-20.613-107.299
			C145.469,973.506,145.769,998.671,147.26,1024.083z"/>
		<path fill="#FF3C00" d="M164.976,1154.57c-0.312-2.166-0.636-4.331-0.975-6.494c-0.113,4.997-0.203,10.021-0.273,15.072
			C164.178,1160.282,164.587,1157.424,164.976,1154.57z"/>
		<path fill="#FF3C00" d="M460.835,587.143c-3.027,6.881-6.095,13.696-9.137,20.452c-17.812,39.56-36.232,80.466-42.029,125.474
			c-1.7,13.197-3.095,26.477-4.444,39.319c-2.433,23.161-4.949,47.11-9.328,71.17c-11.522,63.309-13.917,128.766-13.719,193.729
			c6.902,11.603,13.92,23.046,20.863,34.366c20.778,33.878,42.132,68.731,59.245,105.928c3.471-22.742,1.6-50.175-0.109-75.145
			c-0.863-12.613-1.678-24.527-1.677-34.561c0.003-34.234-0.206-69.011-0.407-102.643c-0.734-122.39-1.48-247.398,7.874-372.055
			C465.618,591.155,463.24,589.144,460.835,587.143z"/>
		<path fill="#FF3C00" d="M471.209,554.482c5.631-60.697,13.905-121.238,26.004-181.279c5.338-26.493,11.136-53.068,17.171-79.559
			c-2.493-40.043-3.762-78.695-3.94-117.64C510.169,116.063,495.707,57.866,474.078,1h-75.82
			c-12.048,31.431-26.718,61.642-40.954,90.938c-7.852,16.158-15.806,32.545-23.375,49.246
			c5.1,73.265,18.315,148.488,33.735,222.526c5.716,27.443,15.383,53.12,24.731,77.952c13.738,36.492,26.872,71.396,27.673,110.089
			c13.553,9.966,26.914,20.112,39.615,30.544C463.674,573.144,467.566,563.876,471.209,554.482z"/>
		<path fill="#FF3C00" d="M1506.089,576.712c-0.1-9.158,0.853-20.185,1.861-31.859c1.777-20.566,3.736-43.458,0.301-61.291
			c-2.642,3.347-5.315,6.652-8.029,9.897c-24.776,29.636-51.747,58.763-77.829,86.931c-15.22,16.437-30.957,33.433-46.033,50.289
			c-8.018,8.965-17.827,18.199-28.213,27.976c-4.765,4.485-9.654,9.091-14.501,13.803c-0.766,103.455,1.329,209.166,34.019,308.353
			c7.488,22.72,23.682,60.61,45.016,98.468c10.023,12.85,19.44,26.24,26.773,39.877c1.82,3.385,3.473,6.725,4.977,10.027
			c19.117,26.281,40.259,48.602,61.881,60.372c-0.071-17.907-0.305-36.011-0.533-53.614c-1.612-123.919-3.27-251.872,50.726-368.127
			C1524.966,707.102,1506.907,651.945,1506.089,576.712z"/>
		<path fill="#FF3C00" d="M1861.674,499.789c-15.671,16.551-31.734,33.233-48.761,48.972c-0.097,3.643-0.198,7.271-0.299,10.867
			c-0.477,17.085-0.957,34.376-0.923,51.651c15.259-41.522,32.614-78.551,48.67-109.051
			C1860.789,501.416,1861.228,500.603,1861.674,499.789z"/>
		<path fill="#FF3C00" d="M2145.562,879.798c4.946,13.999,9.673,28.017,14.052,42.01c13.603,43.467,35.994,83.588,59.219,122.259
			c-0.001-42.482-0.004-84.966,0.002-127.448c0.006-46.197,0.017-92.947,1.228-140.188
			C2198.584,813.669,2172.277,847.369,2145.562,879.798z"/>
		<path fill="#FF3C00" d="M2194.827,654.646c-4.768,5.533-9.523,11.195-14.194,17.042c-28.951,36.241-52.254,76.323-69.139,118.256
			c11.258,28.491,22.551,57.471,32.9,86.55c27.398-33.312,54.288-67.988,75.84-106.438c0.511-18.281,1.206-36.635,2.163-55.059
			C2213.103,694.735,2203.906,674.571,2194.827,654.646z"/>
		<path fill="#FF3C00" d="M1379.41,179.536c8.131-12.886,18.543-26.732,29.406-41.171c21.657-28.785,44.052-58.551,49.891-83.344
			c1.831-7.775-0.003-17.897-3.833-28.964c-6.039-7.984-11.621-16.286-16.598-25.057h-139.312
			c1.823,24.607,7.237,49.435,16.303,74.076C1329.48,113.708,1351.549,149.137,1379.41,179.536z"/>
		<path fill="#FF3C00" d="M2362.846,32.286c-7.277,8.473-14.804,17.234-19.926,27.383c-19.671,38.978-18.463,88.815-17.397,132.786
			c0.24,9.937,0.468,19.322,0.478,28.534c0.005,4.55,0.013,9.084,0.021,13.603c0.179,98.516,0.339,192.208-37.336,284.196
			c5.38,16.063,10.984,32.004,16.756,47.89c4.163,6.273,8.305,12.533,12.409,18.743c41.507,62.787,84.426,127.713,136.549,181.571
			c35.286,36.462,48.425,80.346,62.336,126.806c3.807,12.714,7.728,25.782,12.185,39.037c-1.06-38.761-1.812-77.83-1.738-116.551
			c0.016-8.411-0.109-16.958-0.231-25.223c-0.498-33.909-1.014-68.973,8.209-102.812c5.675-20.819,14.507-40.923,23.048-60.365
			c8.667-19.73,17.63-40.132,23.26-61.231c7.529-28.22,13.914-59.279,18.533-91.271v-195.62
			c-3.459-17.225-8.117-33.263-14.138-47.637c-20.377-48.649-60.019-80.041-98.354-110.398
			c-29.522-23.379-60.051-47.554-80.927-79.233l2.506-1.65c20.609,31.277,50.946,55.3,80.283,78.532
			c38.634,30.593,78.583,62.229,99.26,111.591c4.53,10.816,8.299,22.561,11.37,35.036V1h-215.641
			C2379.508,12.878,2371.09,22.689,2362.846,32.286z"/>
		<path fill="#FF3C00" d="M2108.262,789.927c-1.94-4.908-3.879-9.805-5.811-14.681c-13.697-34.579-27.676-69.885-40.484-105.928
			c-20.57,47.608-34.441,97.397-32.039,155.621c1.862,45.133,6.32,108.749,16.802,176.54c9.092-13.936,18.853-27.494,28.978-40.76
			c0.446-12.466,1.113-25.369,2.011-38.777C2080.699,877.419,2091.158,832.722,2108.262,789.927z"/>
		<path fill="#FF3C00" d="M1809.197,637.315c-0.122-3.082-0.219-6.168-0.295-9.257c-1.517,4.402-3.007,8.848-4.465,13.338
			C1806.029,640.045,1807.615,638.684,1809.197,637.315z"/>
		<path fill="#FF3C00" d="M2055.879,1053.437c4.142,20.78,12.829,41.805,21.23,62.138c7.713,18.668,15.601,37.767,20.117,56.998
			c-1.48-11.601-4.163-22.994-6.936-34.757c-1.633-6.929-3.321-14.093-4.748-21.324c-8.562-43.416-11.833-92.028-10.012-150.589
			c-9.687,12.819-19.013,25.91-27.688,39.346c-0.146,0.226-0.278,0.452-0.423,0.678
			C2049.901,1021.615,2052.705,1037.51,2055.879,1053.437z"/>
		<path fill="#FF3C00" d="M166.323,1143.605c2.674-24.33,3.193-48.227,1.913-71.803c-1.935,19.904-3.107,40.112-3.8,60.745
			C165.091,1136.226,165.721,1139.912,166.323,1143.605z"/>
		<path fill="#FF3C00" d="M195.951,637.68c1.806-6.154,3.601-12.693,5.473-19.749c10.942-41.234,16.4-84.432,21.679-126.207
			c2.182-17.267,4.431-35.011,7.052-52.543c-0.037-0.109-0.074-0.22-0.112-0.329c-11.992,51.058-19.804,103.494-27.367,154.347
			C200.488,607.904,198.276,622.76,195.951,637.68z"/>
		<path fill="#FF3C00" d="M992.084,791.688C945.23,862.17,906.395,936.09,882.93,1014.039c5.441,10.574,10.316,21.521,14.356,32.868
			c2.178,3.156,4.363,6.305,6.542,9.443c23.088,33.269,46.727,67.331,56.257,101.128c5.734,7.19,11.421,14.418,17.053,21.688
			c-0.013-8.665-0.019-17.332-0.037-25.993c-0.237-112.429-0.482-228.684,12.293-341.932
			C990.133,804.694,991.048,798.176,992.084,791.688z"/>
		<path fill="#FF3C00" d="M257.429,321.435c-4.166,17.598-8.401,35.501-12.321,53.554c7.748-23.167,16.403-46.03,24.896-68.444
			c11.195-29.545,22.772-60.096,31.824-90.322c7.756-25.899,17.856-50.79,28.788-74.997c-0.932-13.293-1.603-26.581-1.949-39.809
			C327.736,65.828,329.093,32.43,332.758,1h-30.032c-0.279,3.973-0.497,7.931-0.708,11.798c-0.3,5.499-0.584,10.693-1.025,15.561
			l-0.515,5.696c-5.292,58.489-10.763,118.971-20.152,178.412C274.52,249.229,265.831,285.936,257.429,321.435z"/>
		<path fill="#FF3C00" d="M658.436,555.347c-4.001,10.121-8.138,20.587-11.669,32.08c-17.47,56.869-27.067,116.916-31.952,178.533
			c24.34,32.37,49.713,64.829,77.59,95.234c1.83-12.3,4.222-24.696,7.191-37.216c2.757-11.622,6.19-23.008,10.138-34.197
			c-22.085-33.389-39.347-68.937-45.25-106.848c-8.275-53.147,7.936-82.752,30.373-123.727l2.481-4.536
			c9.287-16.995,16.853-34.709,24.169-51.841c7.249-16.971,14.657-34.292,23.839-51.138c1.38-28.444,3.019-56.899,4.893-85.379
			c-20.484-55.255-33.629-107.35-39.914-157.945c-1.454-11.706-2.823-23.259-4.118-34.683
			c-17.566-21.906-34.156-44.765-46.84-69.562c-10.854-21.218-20.545-43.216-29.032-65.811
			c-9.331,28.654-18.596,58.055-25.82,87.762c-11.685,48.046-25.352,96.339-39.837,144.332c1.793,3.687,3.726,7.329,5.841,10.911
			c12.116,20.517,26.87,39.386,41.138,57.633c34.641,44.303,67.362,86.149,64.341,148.905
			C674.734,514.117,666.817,534.145,658.436,555.347z"/>
		<path fill="#FF3C00" d="M290.232,454.991c-17.804-17.047-34.955-33.724-51.165-50.48c-1.479,7.766-2.867,15.544-4.123,23.324
			c-0.594,3.679-1.161,7.38-1.718,11.087c10.99,32.301,23.008,65.448,36.062,99.433c21.799,56.754,45.151,122.933,58.719,193.828
			c39.546-47.243,78.555-98.703,86.762-148.241c1.745-10.53,2.437-20.72,2.31-30.666c-9.253-6.792-18.59-13.502-27.857-20.161
			C354.934,508.475,319.48,482.996,290.232,454.991z"/>
		<path fill="#FF3C00" d="M364.728,364.321c-13.708-65.817-27.882-141.27-33.649-216.789
			c-10.009,22.511-19.208,45.613-26.376,69.551c-9.083,30.329-20.679,60.931-31.893,90.524
			c-11.549,30.478-23.405,61.786-32.833,93.519c16.547,17.163,34.093,34.234,52.331,51.698
			c29.096,27.857,64.462,53.273,98.665,77.853c8.653,6.219,17.367,12.482,26.019,18.815c-1.269-37.318-14.044-71.291-27.403-106.774
			C380.199,417.78,370.491,391.993,364.728,364.321z"/>
		<path fill="#FF3C00" d="M229.558,428.056c0.302-1.224,0.593-2.451,0.9-3.673c1.804-7.172,3.771-14.323,5.856-21.453
			c0.068-0.356,0.135-0.713,0.204-1.069c-8.131-8.463-16.021-16.954-23.625-25.528C218.139,393.316,223.698,410.562,229.558,428.056
			z"/>
		<path fill="#FF3C00" d="M395.043,1h-59.051c-5.022,43.316-5.379,88.195-2.488,133.878c6.882-14.98,14.034-29.708,21.101-44.251
			C368.65,61.724,383.118,31.929,395.043,1z"/>
		<path fill="#FF3C00" d="M2222.751,708.565c1.731-31.361,4.227-62.92,7.84-94.665c-6.226,7.314-12.631,14.526-19.147,21.854
			c-4.769,5.362-9.613,10.814-14.457,16.394C2205.475,670.779,2214.07,689.624,2222.751,708.565z"/>
		<path fill="#FF3C00" d="M172.666,1h-26.301c0.003,1.517,0.004,3.038,0.008,4.553c0.02,7.966,0.175,16.056,0.452,24.255
			c5.549-6.184,11.412-12.564,17.626-19.276C167.213,7.548,169.959,4.358,172.666,1z"/>
		<path fill="#FF3C00" d="M825.871,355.211c1.494-1.445,2.985-2.887,4.473-4.325c9.055-8.75,18.219-17.611,27.224-26.762
			c-1.506-2.486-2.99-4.985-4.428-7.511c-16.989-29.833-28.379-60.911-33.854-92.37C806.114,148.565,818.66,73.918,836.346,1
			h-45.689c-11.019,79.702-20.116,158.661-27.32,237.228C790.758,272.993,815.119,310.298,825.871,355.211z"/>
		<path fill="#FF3C00" d="M32.516,62.733C22.021,49.984,11.165,39.287,0,30.039v372.926c0.847-31.709,3.015-64.521,6.05-99.012
			c5.355-60.851,13.39-151.996,47.742-212.498C47.308,81.736,40.275,72.158,32.516,62.733z"/>
		<path fill="#FF3C00" d="M1084.386,811.205c-0.036,5.984-0.047,12.04-0.038,18.16c33.155,52.879,63.585,116.775,92.484,194.093
			c4.64,12.415,10.74,25.44,17.438,39.043c8.881-139.84-5.778-300.574-63.864-441.197
			C1110.397,676.074,1094.427,742.116,1084.386,811.205z"/>
		<path fill="#FF3C00" d="M2360.57,30.331c8.105-9.436,15.928-18.545,20.587-29.331h-87.675
			c7.041,107.483,13.583,218.339-1.17,328.219c-4.701,35.018-14.306,70.271-23.595,104.364c-0.964,3.539-1.933,7.1-2.899,10.671
			c6.578,23.778,13.76,47.094,21.409,70.139c36.132-90.436,35.97-182.769,35.794-279.796c-0.009-4.519-0.017-9.054-0.021-13.605
			c-0.01-9.177-0.236-18.546-0.477-28.464c-1.074-44.324-2.292-94.561,17.719-134.21C2345.528,47.842,2353.175,38.94,2360.57,30.331
			z"/>
		<path fill="#FF3C00" d="M1333.681,668.248c4.158-4.008,8.329-7.937,12.409-11.777c10.338-9.731,20.102-18.924,28.033-27.792
			c15.093-16.876,30.84-33.881,46.067-50.327c26.058-28.141,53.002-57.239,77.73-86.816c3.208-3.837,6.374-7.76,9.498-11.749
			c-0.424-1.703-0.884-3.371-1.43-4.955c-15.816-45.925-54.525-87.323-91.96-127.358c-5.641-6.033-11.32-12.109-16.945-18.227
			c-9.225,1.042-18.465,2.149-27.692,3.388c-12.108,15.868-24.741,31.743-37.814,47.684c-1.623,40.297-0.293,81.054,1.023,121.285
			c0.886,27.069,1.802,55.06,1.763,82.142c-0.027,18.731-0.225,37.894-0.416,56.424
			C1333.851,649.504,1333.756,658.867,1333.681,668.248z"/>
		<path fill="#FF3C00" d="M79.441,760.934c3.956,9.385,7.93,18.815,11.888,28.282c15.651-22.378,34.038-42.342,54.518-63.661
			c7.175-7.469,13.229-14.461,18.447-21.302c-3.667-17.149-4.578-34.86-5.451-52.184c-0.881-17.479-1.792-35.553-5.63-52.229
			c-7.458-32.408-20.284-79.541-39.038-120.044c-7.392-15.965-15.928-30.584-24.184-44.722
			c-18.668-31.971-36.301-62.169-37.78-102.434C50,272.456,61.261,214.924,73.759,161.718c2.027-8.628,4.241-16.675,6.655-24.261
			c-7.442-14.691-15.542-29.096-24.771-43.202c-33.398,59.935-41.312,149.816-46.605,209.96
			C-3.588,447.69-1.234,562.026,49.431,688.529C59.152,712.802,69.466,737.271,79.441,760.934z"/>
		<path fill="#FF3C00" d="M2250.525,492.225c-2.091-2.89-4.178-5.778-6.273-8.669c-8.045-11.092-16.133-22.243-24.056-33.517
			c-14.394-9.708-30.245-18.94-46.57-27.713c-2.077,9.07-4.469,17.84-7.18,26.272c-8.103,25.206-18.378,49.239-29.566,72.516
			c19.065,40.966,37.675,81.796,56.058,122.147c0.891,1.954,1.789,3.927,2.682,5.887c4.554-5.229,9.102-10.35,13.583-15.388
			c7.528-8.464,14.907-16.774,22.023-25.264c3.89-33.038,8.989-66.271,15.713-99.686
			C2248.052,503.278,2249.264,497.747,2250.525,492.225z"/>
		<path fill="#FF3C00" d="M2600,1119.099V494.787c-4.259,25.391-9.576,49.933-15.635,72.638
			c-5.689,21.322-14.699,41.831-23.412,61.665c-8.497,19.342-17.283,39.342-22.899,59.947c-9.111,33.431-8.599,68.278-8.104,101.979
			c0.122,8.277,0.247,16.836,0.231,25.272c-0.08,41.864,0.803,84.148,2.001,126.009c8.044,22.626,17.96,45.764,27.552,68.142
			C2574.92,1045.869,2590.396,1082.005,2600,1119.099z"/>
		<path fill="#FF3C00" d="M173.157,743.717c0.635-2.75,1.253-5.506,1.865-8.264c-0.929-1.862-1.817-3.74-2.653-5.638
			c-3.128-7.099-5.448-14.4-7.225-21.818c-4.94,6.344-10.583,12.816-17.134,19.636c-20.854,21.707-39.525,41.991-55.31,64.867
			c18.892,45.273,37.316,91.413,51.541,137.914C147.548,873.747,156.919,814.045,173.157,743.717z"/>
		<path fill="#FF3C00" d="M331.023,768.864c-1.38-10.046-2.993-20.015-4.795-29.899c-5.171,6.139-10.334,12.202-15.421,18.176
			c-19.147,22.486-37.233,43.726-51.412,63.657c-1.577,2.217-3.121,4.43-4.647,6.642c27.649,31.044,48.311,59.391,65.772,90.778
			C331.817,869.559,338.429,822.791,331.023,768.864z"/>
		<path fill="#FF3C00" d="M308.523,755.195c5.603-6.58,11.298-13.269,16.996-20.047c-13.452-71.583-37.034-138.469-59.032-195.738
			c-12.325-32.088-23.728-63.432-34.216-94.026c-2.26,15.619-4.252,31.356-6.193,46.716c-5.291,41.874-10.762,85.172-21.755,126.601
			c-3.819,14.394-7.373,26.822-11.429,38.161c-4.261,26.113-8.995,52.321-14.707,78.196c12.81,25.165,34.047,47.359,54.646,68.876
			c6.55,6.843,12.738,13.306,18.611,19.816c0.419,0.465,0.827,0.925,1.244,1.389c1.404-2.026,2.821-4.053,4.263-6.079
			C271.205,799.021,289.332,777.733,308.523,755.195z"/>
		<path fill="#FF3C00" d="M167.5,704.91c1.8,8.088,4.235,16.025,7.615,23.696c0.307,0.697,0.626,1.391,0.947,2.084
			c4.342-20.017,8.122-40.227,11.56-60.433C182.37,682.351,176.047,693.478,167.5,704.91z"/>
		<path fill="#FF3C00" d="M462.088,584.282c2.072,1.72,4.128,3.446,6.161,5.182c0.626-8.162,1.295-16.323,2.011-24.482
			C467.613,571.476,464.874,577.908,462.088,584.282z"/>
		<path fill="#FF3C00" d="M612.092,762.339c4.98-60.623,14.584-119.725,31.808-175.793c3.565-11.606,7.725-22.127,11.747-32.302
			c8.288-20.965,16.115-40.768,17.356-66.534c2.967-61.642-29.42-103.061-63.708-146.912
			c-14.328-18.323-29.143-37.271-41.357-57.956c-1.604-2.716-3.108-5.465-4.53-8.239c-12.156,40.132-24.855,80.037-37.443,119.4
			c4.434,41.999,10.126,86.587,17.214,135.327c7.701,52.952,11.926,106.437,14.188,159.897
			c11.95,15.614,23.625,31.328,35.132,46.818C598.977,744.768,605.499,753.547,612.092,762.339z"/>
		<path fill="#FF3C00" d="M379.168,1032.199c-0.057-63.432,2.514-127.29,13.777-189.179c4.358-23.948,6.868-47.841,9.295-70.946
			c1.351-12.859,2.748-26.157,4.452-39.389c5.854-45.45,24.367-86.563,42.269-126.322c3.154-7.005,6.335-14.076,9.471-21.215
			c-12.279-10.113-25.199-19.964-38.322-29.642c-0.001,9.387-0.739,19.003-2.383,28.925c-8.44,50.946-48.664,103.501-88.998,151.558
			c1.995,10.727,3.766,21.556,5.266,32.478c7.639,55.628,0.519,103.571-11.31,153.691c6.454,11.875,12.483,24.209,18.281,37.312
			C352.081,984.588,365.335,1008.727,379.168,1032.199z"/>
		<path fill="#FF3C00" d="M507.062,627.19c16.295,18.631,31.907,38.124,47.065,57.821c-2.319-51.927-6.526-103.85-14.002-155.25
			c-6.707-46.113-12.156-88.509-16.476-128.521c-0.391,1.221-0.783,2.447-1.173,3.667c-12.694,39.679-25.82,80.71-38.112,120.992
			c-3.024,9.91-6.486,19.66-10.206,29.274c-1.132,12.234-2.158,24.476-3.084,36.721C484.188,603.254,496.38,614.977,507.062,627.19z
			"/>
		<path fill="#FF3C00" d="M55.209,332.531c1.451,39.513,18.9,69.395,37.373,101.032c8.291,14.198,16.864,28.88,24.316,44.975
			c18.862,40.736,31.75,88.084,39.239,120.631c3.896,16.933,4.814,35.142,5.702,52.75c0.823,16.319,1.67,32.986,4.851,49.127
			c10.454-14.329,17.359-28.212,23.24-44.654c3.485-21.352,6.655-42.644,9.777-63.634c7.803-52.464,15.864-106.614,28.518-159.262
			c-7.166-21.254-13.877-42.133-20.141-62.639c-27.492-31.645-51.064-64.597-68.828-101.74
			c-9.689-20.259-18.363-40.71-26.752-60.487c-9.762-23.016-19.288-45.462-30.143-67.288c-2.039,6.645-3.935,13.627-5.681,21.063
			C64.229,215.406,53.011,272.7,55.209,332.531z"/>
		<path fill="#FF3C00" d="M1159.756,25.983c30.207,68.334,61.443,138.996,62.211,213.073c0.442,42.619,0.925,89.633-3.833,137.254
			c35.476-21.578,74.086-33.293,113.613-40.743c2.559-24.198,6.613-48.103,12.818-71.501c-1.664-2.609-3.27-5.224-4.8-7.848
			c-42.82-73.426-73.279-158.866-91.133-255.219h-99.857C1152.398,9.33,1156.125,17.768,1159.756,25.983z"/>
		<path fill="#FF3C00" d="M115.266,207.458c8.376,19.747,17.037,40.166,26.697,60.364c16.668,34.852,38.521,66.028,63.965,95.926
			c-37.064-122.875-57.769-232.097-61.814-326.374c-28.006,31.772-47.261,59.049-60.457,99.846
			C95.126,159.985,105.067,183.412,115.266,207.458z"/>
		<path fill="#FF3C00" d="M1169.179,1201c-48.106-37.104-77.965-85.491-91.273-147.919c-12.598-59.093-8.902-125.347-3.625-182.364
			c1.359-14.687,3.011-29.339,4.92-43.891c-6.118-9.608-12.328-18.851-18.639-27.729c-12.412-17.461-25.538-34.036-38.921-50.04
			c-8.716,12.092-17.232,24.285-25.51,36.583c-1.488,8.597-2.775,17.246-3.755,25.938
			c-12.756,113.077-12.511,229.245-12.274,341.589c0.021,9.965,0.03,19.936,0.042,29.904c4.101,5.322,8.182,10.66,12.222,16.027
			l-2.396,1.805c-3.25-4.317-6.528-8.615-9.819-12.904c0.004,4.001,0.017,8,0.017,12.002h-3c0-5.304-0.016-10.604-0.022-15.907
			c-5.049-6.545-10.142-13.057-15.276-19.537c2.65,11.948,3.407,23.854,1.614,35.669l-2.966-0.449
			c2.046-13.489,0.642-27.16-3.173-40.918c-15.792-19.786-31.954-39.28-48.39-58.518c0.143,1.809,0.271,3.623,0.363,5.449
			c1.054,20.913,0.701,42.31,0.36,63.001c-0.169,10.246-0.344,20.841-0.344,31.21h-3c0-10.395,0.175-21.002,0.344-31.26
			c0.34-20.642,0.692-41.987-0.356-62.801c-0.162-3.21-0.428-6.385-0.749-9.541c-11.218-13.078-22.558-26.04-33.99-38.897
			c-10.176,46.048-14.741,93.482-12.251,142.423l-2.996,0.152c-2.443-48.018,1.799-96.788,12.616-145.534
			c-41.683-46.767-84.526-92.156-126.979-136.752c5.114,65.218,17.136,128.934,42.781,188.639
			c3.337,7.77,7.336,15.661,11.204,23.294c11.196,22.096,22.773,44.943,21.708,70.34l-2.997-0.125
			c1.032-24.614-10.366-47.106-21.387-68.858c-3.889-7.675-7.91-15.61-11.284-23.467c-26.286-61.195-38.338-126.495-43.305-193.269
			c-6.148-6.456-12.288-12.897-18.413-19.322c-6.781-7.113-13.567-14.232-20.354-21.36c-1.821-1.912-3.618-3.845-5.417-5.775
			c-17.858,134.626,35.835,238.637,97.906,331.279l-2.492,1.67c-44.33-66.163-72.104-122.396-87.404-176.97
			c-14.674-52.338-18.21-104.642-10.662-158.822c-27.838-30.172-53.146-62.389-77.392-94.562
			c-6.911,91.582-3.593,186.539-0.339,279.621c1.822,52.116,3.543,101.343,3.543,149.897h-1.583l-1.013,1H1169.179z"/>
		<path fill="#FF3C00" d="M2122.988,57.082c14.23,28.403,26.444,60.691,36.121,95.037c8.533-22.775,18.875-45.155,29.078-67.221
			c7.726-16.708,15.714-33.983,22.572-50.796c4.683-11.481,9.69-22.49,14.993-33.102h-132.946
			C2102.997,19.054,2113.254,37.653,2122.988,57.082z"/>
		<path fill="#FF3C00" d="M946.625,67.777c12.059,26.157,24.284,52.688,34.755,79.47c3.343-4.295,6.813-8.49,10.403-12.585
			C976.576,91.646,965.026,47.32,961.139,1h-44.036C925.868,22.733,935.952,44.628,946.625,67.777z"/>
		<path fill="#FF3C00" d="M994.06,132.084c5.922-6.539,12.467-12.597,18.81-18.458c11.437-10.567,23.262-21.495,31.164-35.209
			l2.6,1.498c-8.129,14.11-20.126,25.195-31.727,35.915c-6.504,6.01-13.229,12.224-19.211,18.91
			c-0.167,0.187-0.328,0.38-0.495,0.567c14.823,41.646,33.046,82.091,51.001,121.93c23.921,53.08,48.657,107.968,64.863,164.505
			c3.664,12.782,5.746,24.084,6.666,34.735c29.879-28.931,62.839-55.285,90.803-74.058c2.116-1.421,4.247-2.798,6.388-4.144
			c4.987-48.24,4.495-95.979,4.047-139.189c-0.762-73.46-31.871-143.834-61.955-211.892c-3.808-8.613-7.719-17.47-11.506-26.196
			H964.15C967.987,46.358,979.229,89.846,994.06,132.084z"/>
		<path fill="#FF3C00" d="M822.241,223.729c5.899,33.9,18.725,67.267,37.417,98.261c15.119-15.489,29.721-31.845,42.493-49.966
			c12.581-17.849,23.837-37.129,34.723-55.776c13.038-22.333,26.435-45.249,42.375-66.207
			c-10.588-27.29-23.055-54.344-35.348-81.008C933.029,45.452,922.76,23.17,913.863,1h-74.428
			C821.736,73.836,809.125,148.364,822.241,223.729z"/>
		<path fill="#FF3C00" d="M237.22,398.262c5.143-26.178,11.288-52.164,17.29-77.518c8.39-35.444,17.065-72.095,22.854-108.745
			c9.374-59.343,14.84-119.773,20.127-178.214l0.516-5.696c0.436-4.814,0.718-9.982,1.017-15.454
			C299.231,8.82,299.446,4.92,299.719,1H176.52c-3.202,4.051-6.496,7.927-9.868,11.57c-6.986,7.546-13.528,14.672-19.671,21.566
			c3.767,96.38,25.131,208.583,63.772,335.216C219.219,379.082,228.061,388.69,237.22,398.262z"/>
		<path fill="#FF3C00" d="M709.061,172.452c8.194,10.2,16.599,20.2,24.915,30.092c8.937,10.63,17.935,21.339,26.665,32.282
			C767.79,157.38,776.774,79.551,787.628,1h-92.653C697.709,61.838,703.053,119.846,709.061,172.452z"/>
		<path fill="#FF3C00" d="M563.464,1101.313c-7.32-35.757-7.464-74.871-7.464-124.393v-1.138c0-24.604,0.326-49.62,0.474-73.813
			c0.427-69.671,0.883-140.694-2.118-211.741c-15.942-20.809-32.374-41.424-49.551-61.063
			c-10.123-11.573-21.635-22.717-34.014-33.537c-9.171,123.812-8.427,247.993-7.697,369.586c0.202,33.637,0.41,68.418,0.407,102.661
			c-0.001,9.931,0.811,21.795,1.67,34.356c1.829,26.737,3.847,56.273-0.666,80.191c2.513,5.617,4.926,11.288,7.222,17.02
			l-2.785,1.115c-1.762-4.399-3.613-8.754-5.507-13.087c-1.104,4.646-2.491,9.043-4.22,13.115l-2.762-1.172
			c2.145-5.053,3.743-10.646,4.922-16.619c-17.327-38.531-39.423-74.572-60.891-109.574c-6.079-9.911-12.213-19.921-18.28-30.046
			c0.129,24.14,0.587,48.201,1.044,72.046c0.534,27.856,1.086,56.661,1.086,84.779h-3c0-28.089-0.552-56.88-1.085-84.722
			c-0.489-25.53-0.982-51.308-1.07-77.169c-14.813-24.928-29.086-50.602-40.955-77.424c-5.285-11.944-10.765-23.243-16.585-34.14
			c-3.608,14.99-7.605,30.198-11.732,45.889c-1.374,5.223-2.761,10.492-4.15,15.822c-0.973,3.732-1.937,7.447-2.898,11.151
			c-12.815,49.409-24.921,96.078-48.342,142.419c-2.736,5.412-5.629,10.389-8.428,15.202c-8.036,13.823-14.977,25.762-15.924,43.053
			l-2.995-0.164c0.987-18.011,8.438-30.827,16.326-44.396c2.776-4.776,5.647-9.715,8.343-15.049
			c23.276-46.053,35.342-92.57,48.116-141.819c0.961-3.704,1.925-7.423,2.898-11.156c1.39-5.332,2.777-10.606,4.152-15.831
			c4.421-16.809,8.693-33.062,12.493-49.082c-17.592-32.172-38.4-60.989-66.492-92.594c-51.919,76.146-73.924,149.205-83.109,226.42
			c2.915,33.621,2.27,66.137-1.926,97.904c2.188,15.199,3.705,30.474,3.863,45.67l-3,0.031c-0.121-11.574-1.039-23.214-2.444-34.842
			c-0.846,5.339-1.789,10.658-2.837,15.958c-0.037,6.245-0.052,12.532-0.052,18.868h-3c0-1.593,0.003-3.171,0.005-4.752
			c-0.398,1.705-0.796,3.409-1.215,5.11l-2.913-0.717c1.555-6.313,2.938-12.591,4.187-18.841c0.112-16.51,0.386-32.411,0.905-47.805
			c-1.619-9.093-3.364-18.137-5.097-27.09c-5.163-26.68-10.5-54.268-12.107-81.647c-1.669-28.452-1.854-56.592-0.471-85.423
			c-14.18-47.856-33.044-95.29-53.103-143.375c-12.97,19.291-23.911,40.506-32.399,65.992
			c-20.356,61.122-24.752,124.118-29.003,185.039c-3.533,50.634-7.187,102.99-20,153.874l-2.909-0.732
			c12.749-50.626,16.393-102.848,19.917-153.351c4.264-61.107,8.674-124.296,29.149-185.777c8.833-26.523,20.273-48.442,33.86-68.36
			c-4.173-9.983-8.392-19.995-12.629-30.047c-9.979-23.675-20.299-48.156-30.031-72.454C15.24,611.23,2.318,537.513,0,458.733V1201
			h615.049C587.407,1170.732,571.382,1139.987,563.464,1101.313z"/>
		<path fill="#FF3C00" d="M2142.168,879.197c-10.139-28.594-21.211-57.113-32.287-85.172
			c-16.289,41.596-26.278,84.938-29.169,128.118c-0.794,11.864-1.409,23.335-1.85,34.454c14.896-19.294,30.484-37.981,45.784-56.318
			C2130.473,893.296,2136.329,886.275,2142.168,879.197z"/>
		<path fill="#FF3C00" d="M2430.543,1094.325c-2.529-113.669-13.163-229.522-57.894-345.244
			c-8.142-21.063-16.332-41.873-24.253-61.998c-15.768-40.062-31.237-79.386-45.653-119.047
			c-4.028-6.068-8.084-12.148-12.164-18.228c0.688,22.005-2.958,48.47-10.957,79.218c-12.208,46.929-31.06,90.365-41.577,112.789
			c7.305,15.82,14.653,31.645,22.042,47.393C2311.98,899.821,2368.225,1000.558,2430.543,1094.325z"/>
		<path fill="#FF3C00" d="M1357.6,1012.437c7.867,10.615,17.506,21.884,27.711,33.815c5.581,6.525,11.383,13.314,17.146,20.301
			c-18.248-34.365-31.651-66.63-37.642-84.804c-32.523-98.682-34.892-203.587-34.188-306.336
			c-18.329,18.083-35.492,37.675-42.044,58.096C1257.909,829.117,1304.123,940.283,1357.6,1012.437z"/>
		<path fill="#FF3C00" d="M2234.734,741.805c-3.217-6.971-6.426-13.938-9.623-20.899c-0.713,14.513-1.275,28.983-1.71,43.408
			c2.806-5.186,5.513-10.441,8.107-15.771C2232.444,746.62,2233.533,744.353,2234.734,741.805z"/>
		<path fill="#FF3C00" d="M2287.373,545.038c-2.047-3.037-4.103-6.066-6.162-9.095c-3.01,6.496-6.221,12.984-9.647,19.467
			c-10.856,20.539-23.655,37.802-37.464,54.327c-4.112,35.121-6.852,70.024-8.665,104.686c3.64,7.934,7.296,15.879,10.964,23.828
			c10.64-22.907,28.573-64.825,40.32-109.98C2285.258,595.448,2288.807,567.627,2287.373,545.038z"/>
		<path fill="#FF3C00" d="M2556.977,1011.621c-8.41-19.621-17.068-39.824-24.512-59.789c0.588,19.777,1.229,39.456,1.872,58.919
			c2.047,61.995,4.163,126.101,4.163,189.249h-3c0-63.099-2.115-127.18-4.161-189.15c-0.741-22.44-1.485-45.157-2.142-67.997
			c-5.82-16.416-10.658-32.57-15.336-48.195c-13.803-46.1-26.84-89.644-61.618-125.58
			c-52.315-54.059-95.313-119.102-136.895-182.003c-1.812-2.742-3.637-5.5-5.461-8.257c13.157,35.645,27.108,71.107,41.301,107.167
			c7.923,20.129,16.114,40.943,24.26,62.015c26.46,68.456,42.702,139.372,51.115,223.176c4.252,42.354,6.169,85.609,7.041,127.732
			c22.907,34.275,46.626,67.63,71.259,100.188l-2.393,1.811c-23.733-31.369-46.623-63.474-68.754-96.43
			c0.613,32.923,0.617,65.097,0.617,95.524h-3c0-33.132-0.002-66.519-0.674-100.1c-63.441-95.001-120.608-197.127-173.29-309.419
			c-7.036-14.998-14.036-30.064-20.997-45.13c-0.784,1.646-1.515,3.163-2.167,4.503c-3.478,7.142-7.15,14.146-10.993,21.029
			c-1.36,49.124-1.373,97.729-1.379,145.734c-0.006,44.144-0.003,88.286-0.002,132.429c3.387,5.607,6.783,11.187,10.166,16.742
			c25.819,42.4,52.518,86.244,68.92,133.721l-2.836,0.98c-16.296-47.173-42.825-90.876-68.562-133.142
			c-2.53-4.155-5.521-8.324-7.521-12.508c0,16.899,0,33.799,0,50.698l-0.166,94.461h-3l0.166-94.461c0-18.553,0-37.105,0-55.658
			c-24-40.14-47.961-81.785-62.166-127.177c-4.189-13.389-8.741-26.804-13.459-40.207c-5.462,6.611-10.955,13.174-16.404,19.703
			c-16.162,19.372-32.653,39.14-48.289,59.582c-2.107,60.216,1.088,109.902,9.811,154.129c1.416,7.177,3.095,14.313,4.722,21.216
			c4.953,21.018,9.632,40.869,7.782,62.998l-1.495-0.125l-1.499,0.041c-0.754-27.873-12.401-56.062-23.666-83.321
			c-8.456-20.466-17.2-41.628-21.398-62.697c-2.953-14.817-5.581-29.604-7.933-44.227c-29.817,49.283-28.81,100.417-27.742,154.457
			c0.23,11.617,0.468,23.631,0.404,35.755l-3-0.016c0.063-12.087-0.174-24.081-0.403-35.68
			c-1.099-55.57-2.115-108.09,30.019-159.024c-10.878-69.181-15.456-134.268-17.353-180.226
			c-2.477-60.032,12.139-111.065,33.567-159.9c-7.493-21.273-14.565-42.801-20.904-64.594
			c-5.327-18.312-10.847-36.977-16.389-55.592c-3.247,17.596-6.779,35.045-10.286,52.364
			c-12.988,64.148-26.419,130.481-23.544,197.501c1.728,40.29,3.856,81.02,5.915,120.408c4.856,92.918,9.878,189,9.878,284.75h-3
			c0-95.672-5.02-191.714-9.874-284.594c-2.06-39.396-4.188-80.132-5.917-120.436c-2.89-67.386,10.578-133.9,23.602-198.225
			c3.89-19.208,7.808-38.576,11.335-58.125c-3.556-11.926-7.112-23.812-10.625-35.553c-11.596-38.754-23.29-77.838-34.63-117.185
			c-12.815,14.112-26.946,27.171-40.88,40.039c-7.292,6.733-14.831,13.696-21.961,20.622c-9.594,9.319-19.037,19.012-28.303,28.711
			c1.346,8.221,2.062,16.324,2.119,24.339c0.232,32.378-9.912,62.733-31.011,92.8c-12.165,17.337-27.645,32.243-43.764,46.237
			c0.946,22.376,3.232,44.531,8.018,65.979c10.057,45.077,26.476,89.282,42.354,132.033c15.137,40.755,30.789,82.897,40.926,125.771
			c15.481,65.478,14.895,134.146,14.327,200.555c-0.104,12.159-0.212,24.732-0.216,37.032l-3-0.002
			c0.004-12.311,0.111-24.891,0.216-37.057c0.565-66.229,1.151-134.713-14.247-199.839c-10.094-42.691-25.713-84.746-40.818-125.416
			c-15.913-42.845-32.367-87.147-42.469-132.423c-4.661-20.893-6.972-42.411-7.983-64.132c-2.212,1.898-4.433,3.78-6.655,5.651
			c-17.324,54.69-29.924,115.548-31.121,178.601c-1.11,58.447,0.753,117.941,2.982,176.147
			c18.576,23.656,38.613,52.101,52.711,82.659c19.936,43.213,23.679,82.352,11.125,116.328l-2.814-1.039
			c12.268-33.203,8.555-71.568-11.035-114.032c-13.332-28.899-32.062-55.955-49.79-78.802c0.309,7.986,0.622,15.949,0.936,23.878
			c2.194,55.544,4.464,112.979,4.464,169.476h-3c0-56.437-2.268-113.842-4.461-169.357c-0.367-9.301-0.735-18.647-1.096-28.026
			c-4.729-6.007-9.364-11.716-13.77-17.047c-5.229-6.329-10.223-11.858-15.051-17.206c-16.81-18.616-30.087-33.321-35.681-62.609
			c-7.801-40.839-6.532-104.17,2.951-147.313c10.319-46.956,46.394-77.003,81.279-106.06c2.916-2.429,5.845-4.87,8.771-7.328
			c2.768-8.707,5.654-17.258,8.634-25.635c-0.241-20.015,0.318-40.082,0.871-59.874c0.073-2.63,0.146-5.29,0.218-7.947
			c-9.717,8.852-19.753,17.379-30.22,25.376c-18.788,14.354-39.413,24.803-59.358,34.907c-4.771,2.418-9.595,4.869-14.42,7.381
			c-9.432,32.085-20.937,63.624-32.31,94.795c-9.112,24.975-18.534,50.8-26.652,76.301c-11.57,36.344-18.612,73.839-22.778,111.901
			c10.199,29.406,18.2,59.822,24.11,91.595c13.238,71.173,15.16,144.147,15.294,206.145l-3,0.006
			c-0.236-109.409-7.586-201.837-37.158-290.613c-6.6,66.035-4.836,133.673-3.1,199.914c0.782,29.859,1.592,60.735,1.592,90.696h-3
			c0-29.921-0.809-60.777-1.591-90.617c-1.796-68.515-3.614-138.518,3.794-206.775c-11.766-33.938-26.843-67.393-46.097-101.108
			c-5.909-10.349-11.467-20.42-16.681-30.339c-52.727,115.097-51.082,241.907-49.482,364.74c0.235,18.129,0.478,36.788,0.54,55.225
			c13.247,6.592,26.647,9.125,39.847,6.088l0.672,2.924c-1.608,0.37-3.23,0.645-4.86,0.863H2600v-69.035
			C2590.91,1090.816,2573.764,1050.785,2556.977,1011.621z"/>
		<path fill="#FF3C00" d="M1798.443,650.361c-1.729,1.445-3.459,2.888-5.184,4.324c-36.086,30.057-70.17,58.446-80.27,104.399
			c-9.408,42.8-10.669,105.612-2.934,146.106c5.437,28.463,18.465,42.893,34.96,61.162c4.851,5.371,9.865,10.925,15.137,17.306
			c3.623,4.385,7.406,9.034,11.264,13.882c-2.161-56.939-3.914-115.06-2.828-172.213
			C1769.76,763.676,1781.771,704.129,1798.443,650.361z"/>
		<path fill="#FF3C00" d="M34.833,60.826c7.505,9.117,14.331,18.368,20.64,27.745c0.363-0.613,0.71-1.244,1.079-1.851l2.563,1.558
			c-0.61,1.004-1.192,2.041-1.786,3.063c9.084,13.762,17.066,27.8,24.404,42.1c13.642-40.715,33.451-68.052,62.201-100.4
			c-0.352-9.322-0.54-18.497-0.562-27.522c-0.004-1.504-0.005-3.014-0.008-4.519H0v25.146
			C11.966,35.854,23.595,47.176,34.833,60.826z"/>
		<path fill="#FF3C00" d="M2285.021,527.456c-0.77,1.765-1.556,3.528-2.354,5.292c1.396,2.049,2.79,4.099,4.18,6.152
			C2286.411,534.903,2285.799,531.092,2285.021,527.456z"/>
		<path fill="#FF3C00" d="M2290.29,544.001c2.745,4.074,5.477,8.15,8.197,12.228c-3.793-10.616-7.503-21.267-11.118-31.967
			C2288.828,530.336,2289.801,536.919,2290.29,544.001z"/>
		<path fill="#FF3C00" d="M1911.127,444.393c7.156-6.952,14.71-13.928,22.015-20.674c14.33-13.234,28.873-26.668,41.94-41.234
			c-11.031-38.364-21.717-76.975-31.631-115.777c-8.728-13.545-16.413-28.423-23.238-45.07c2.399,20.298,4.441,40.314,6.264,59.8
			c0.643,6.87,1.581,14.39,2.573,22.352c3.884,31.145,8.286,66.444-0.455,92.717c-7.121,21.4-22.799,43.44-37.961,64.755
			c-2.218,3.117-4.407,6.197-6.553,9.246c0.069,0.359,0.131,0.717,0.197,1.075C1893.074,462.397,1902.027,453.231,1911.127,444.393z
			"/>
		<path fill="#FF3C00" d="M2109.903,785.918c16.893-41.148,39.923-80.474,68.386-116.104c4.994-6.251,10.078-12.29,15.168-18.178
			c-1.082-2.375-2.172-4.764-3.25-7.132c-18.046-39.613-36.312-79.689-55.012-119.898c-9.73,20.018-20.094,39.487-30.307,58.657
			c-14.643,27.484-28.991,54.418-41.166,82.029c13.081,37.048,27.449,73.331,41.519,108.848
			C2106.792,778.055,2108.347,781.983,2109.903,785.918z"/>
		<path fill="#FF3C00" d="M1866.875,489.922c0.578-0.612,1.162-1.229,1.741-1.843c3.792-6,7.946-12.082,12.304-18.289
			c-4.205-20.724-12.541-42.287-25.016-64.992c-4.674-8.507-10.057-16.282-16.054-23.403c-2.867,17.172-7.268,33.78-11.591,50.068
			c-7.162,26.98-14.567,54.88-14.745,84.626c-0.056,9.394-0.258,18.976-0.499,28.495
			C1831.858,526.999,1849.552,508.265,1866.875,489.922z"/>
		<path fill="#FF3C00" d="M1777.793,574.588c11.157-8.524,21.827-17.671,32.152-27.174c0.274-10.454,0.508-21.019,0.569-31.342
			c0.18-30.129,7.636-58.216,14.846-85.378c4.51-16.99,9.1-34.333,11.925-52.263c-40.418-45.464-106.67-63.298-172.546-75.314
			c0.18,0.299,0.358,0.599,0.538,0.898c23.988,40.068,48.792,81.5,56.912,126.463c11.601,64.242,1.898,125.464-15.192,184.795
			c3.985-2.057,7.962-4.072,11.903-6.069C1738.725,599.161,1759.224,588.775,1777.793,574.588z"/>
		<path fill="#FF3C00" d="M1880.74,475.288c0.339-0.355,0.677-0.711,1.016-1.066c-0.018-0.105-0.035-0.21-0.054-0.316
			C1881.381,474.367,1881.06,474.828,1880.74,475.288z"/>
		<path fill="#FF3C00" d="M2062.273,661.151c11.928-26.663,25.811-52.725,39.968-79.298c10.572-19.844,21.303-40.011,31.318-60.762
			c-24.214-52.008-49.188-104.217-75.416-155.948c-6.055-3.154-11.707-6.227-16.821-9.206c-2.822-1.644-5.585-3.299-8.3-4.963
			c0.012,0.079,0.024,0.157,0.036,0.235c9.271,64.654,2.203,126.827-8.666,187.242c6.108,20.493,12.211,41.099,18.081,61.278
			C2048.496,620.435,2055.189,640.904,2062.273,661.151z"/>
		<path fill="#FF3C00" d="M2022.48,532.044c10.22-58.325,16.52-118.274,7.609-180.408c-0.131-0.915-0.281-1.823-0.417-2.736
			c-6.655-4.171-12.979-8.413-19.001-12.743c-8.301,17.394-19.557,32.79-32.23,47.071c11.557,40.227,23.438,79.941,35.12,118.981
			C2016.512,512.07,2019.494,522.039,2022.48,532.044z"/>
		<path fill="#FF3C00" d="M1948.671,274.483c9.117,35.421,18.824,70.563,28.788,105.325c12.117-13.835,22.826-28.729,30.736-45.448
			C1983.713,316.405,1964.376,296.894,1948.671,274.483z"/>
		<path fill="#FF3C00" d="M1869.791,1h-10.384c7.997,13.936,15.977,27.889,23.945,41.848
			C1879.252,28.648,1874.742,14.674,1869.791,1z"/>
		<path fill="#FF3C00" d="M1457.46,24.471c13.642,18.014,29.587,34.457,45.883,51.249c7.62,7.853,15.312,15.781,22.89,23.982
			c19.301-32.08,37.636-64.982,54.48-98.702h-133.361C1451.269,8.927,1454.8,16.882,1457.46,24.471z"/>
		<path fill="#FF3C00" d="M1444.01,1h-2.247c2.724,4.706,5.626,9.275,8.681,13.734C1448.488,10.201,1446.311,5.596,1444.01,1z"/>
		<path fill="#FF3C00" d="M1702.29,115.583c7.038-32.814,12.097-65.591,15.737-98.159c-2.77-5.421-5.511-10.896-8.219-16.424
			h-52.735c-2.991,4.719-6.119,9.494-9.336,14.394c-11.888,18.11-24.18,36.835-30.732,55.703
			c-11.782,33.918-13.83,84.942-4.869,121.324c5.172,20.996,14.04,41.471,24.483,61.516
			C1675.01,216.582,1691.386,166.419,1702.29,115.583z"/>
		<path fill="#FF3C00" d="M1713.152,1c1.811,3.682,3.633,7.342,5.472,10.977c0.392-3.662,0.765-7.32,1.122-10.977H1713.152z"/>
		<path fill="#FF3C00" d="M1593.961,288.167c0.092,0.016,0.184,0.032,0.275,0.048c0.01-0.069,0.021-0.138,0.029-0.206
			C1594.163,288.061,1594.062,288.115,1593.961,288.167z"/>
		<path fill="#FF3C00" d="M1367.769,329.824c3.1-4.069,6.166-8.138,9.194-12.207c1.453-1.953,2.909-3.914,4.365-5.875
			c-12.729-14.521-24.652-29.275-34.553-44.269c-5.699,22.111-9.493,44.683-11.945,67.529
			C1345.761,333.004,1356.755,331.315,1367.769,329.824z"/>
		<path fill="#FF3C00" d="M1589.416,290.424c-10.944,5.269-22.733,9.796-35.414,13.607c-43.109,12.955-89.183,17.9-133.74,22.681
			c-6.479,0.695-12.977,1.394-19.484,2.118c5.132,5.566,10.305,11.097,15.443,16.594c37.649,40.265,76.58,81.901,92.604,128.43
			c0.33,0.958,0.621,1.952,0.907,2.95c41.738-54.176,74.978-121.253,84.09-185.617
			C1592.348,290.935,1590.878,290.68,1589.416,290.424z"/>
		<path fill="#FF3C00" d="M1438.053,233.686c-13.155-8.884-25.747-18.709-37.634-29.418c-7.114-6.41-13.92-13.088-20.412-19.999
			c-2.076,3.414-3.98,6.754-5.658,10.006c-11.556,22.398-20.167,45.575-26.541,69.296c9.979,15.461,22.22,30.704,35.35,45.709
			C1401.379,284.715,1419.791,259.514,1438.053,233.686z"/>
		<path fill="#FF3C00" d="M1342.358,254.707c1.057,1.812,2.15,3.619,3.272,5.425c6.352-22.982,14.819-45.463,26.052-67.233
			c1.829-3.544,3.921-7.188,6.204-10.909c-28.926-31.366-51.309-67.48-65.434-105.878c-9.192-24.986-14.674-50.161-16.504-75.112
			h-44.262C1269.491,96.786,1299.793,181.72,1342.358,254.707z"/>
		<path fill="#FF3C00" d="M1895.631,25.033c-1.021-8.089-1.939-16.083-2.807-24.033h-3.443c-1.119,16.197-1.418,32.504-0.926,48.896
			c0.34,1.23,0.69,2.455,1.025,3.688c4.601,8.07,9.194,16.144,13.784,24.219C1900.424,60.229,1897.855,42.638,1895.631,25.033z"/>
		<path fill="#FF3C00" d="M1553.139,301.159c11.191-3.363,21.515-7.27,31.05-11.661c-14.865-2.669-29.044-5.527-42.272-8.907
			c-35.76-9.137-70.129-24.528-101.373-45.231c-18.416,26.049-36.986,51.461-55.359,76.225c4.289,4.861,8.663,9.699,13.077,14.51
			c7.242-0.812,14.474-1.59,21.681-2.364C1464.363,318.963,1510.296,314.034,1553.139,301.159z"/>
		<path fill="#FF3C00" d="M1371.952,329.261c7.541-0.989,15.087-1.892,22.624-2.75c-3.782-4.136-7.533-8.29-11.223-12.465
			c-1.328,1.789-2.658,3.58-3.984,5.362C1376.925,322.693,1374.442,325.977,1371.952,329.261z"/>
		<path fill="#FF3C00" d="M1960.351,1h-64.093c3.08,28.419,7.055,56.823,11.763,85.164c35.694,62.864,71.041,125.862,105.89,188.712
			c-5.426-20.425-11.403-40.432-17.297-60.132c-20.847-69.687-40.699-136.069-34.674-210.544
			C1961.411,3.131,1960.881,2.065,1960.351,1z"/>
		<path fill="#FF3C00" d="M1964.563,9.533c-4.688,71.908,14.645,136.56,34.924,204.351c6.979,23.33,14.075,47.09,20.237,71.479
			c0.917,1.656,1.838,3.312,2.754,4.968C2043.335,194.499,2006.904,96.063,1964.563,9.533z"/>
		<path fill="#FF3C00" d="M1411.214,140.168c-11.017,14.642-21.571,28.673-29.695,41.644c17.365,18.596,36.915,35.258,58.169,49.558
			c29.205-41.391,57.987-84.393,84.932-128.992c-7.749-8.41-15.627-16.528-23.429-24.569c-14.449-14.89-28.622-29.511-41.192-45.185
			c2.326,8.66,3.159,16.587,1.629,23.084C1455.644,81.114,1433.057,111.136,1411.214,140.168z"/>
		<path fill="#FF3C00" d="M1634.36,256.094c-10.71-20.465-19.829-41.406-25.137-62.956c-9.084-36.882-7.004-88.622,4.947-123.026
			c6.675-19.218,19.07-38.102,31.058-56.364c2.844-4.333,5.62-8.567,8.291-12.748h-69.454
			c-17.197,34.528-35.954,68.198-55.717,101.005c19.187,20.963,37.529,43.817,51.993,71.869
			c16.082,31.189,21.987,68.051,17.685,108.604C1611.922,274.755,1623.931,265.886,1634.36,256.094z"/>
		<path fill="#FF3C00" d="M1577.676,175.249c-14.151-27.446-32.112-49.931-50.941-70.564
			c-26.841,44.373-55.487,87.16-84.552,128.352c30.53,20.15,64.489,35.452,100.476,44.647c14.36,3.669,29.877,6.725,46.191,9.594
			c1.991-0.977,3.94-1.979,5.86-2.999C1599.149,245.601,1594.622,208.114,1577.676,175.249z"/>
		<path fill="#FF3C00" d="M1886.19,1h-13.205c4.377,12.155,8.395,24.548,12.1,37.117C1884.988,25.693,1885.355,13.319,1886.19,1z"/>
		<path fill="#FF3C00" d="M2190.91,86.156c-10.758,23.265-21.674,46.879-30.432,70.911c8.064,29.531,14.258,60.499,18.238,91.777
			c6.059,47.608,6.628,92.582,1.829,133.073c12.358,22.71,26.776,44.563,41.81,65.975c12.1,8.191,23.179,16.729,32.67,25.627
			c2.472-9.827,5.066-19.593,7.682-29.254c-11.309-40.983-20.826-83.361-27.783-128.19c-10.125-65.241-12.977-141.055-8.475-225.334
			c1.308-24.484,6.105-49.141,10.745-72.985c1.081-5.553,2.167-11.142,3.216-16.755h-11.303
			c-5.521,10.958-10.721,22.345-15.57,34.234C2206.653,52.111,2198.65,69.419,2190.91,86.156z"/>
		<path fill="#FF3C00" d="M2215.558,443.394c-12.723-18.353-24.898-37.06-35.644-56.383c-1.457,11.125-3.334,21.891-5.614,32.274
			C2188.609,426.958,2202.576,434.989,2215.558,443.394z"/>
		<path fill="#FF3C00" d="M2280.345,505.192c0.771,1.457,1.49,2.969,2.175,4.518c-6.452-19.67-12.565-39.542-18.241-59.75
			c-2.309,8.584-4.581,17.242-6.755,25.943C2267.14,485.268,2274.97,495.024,2280.345,505.192z"/>
		<path fill="#FF3C00" d="M2251.418,488.34c0.898-3.84,1.828-7.672,2.777-11.498c-7.871-7.518-16.923-14.788-26.8-21.816
			c6.384,8.981,12.848,17.895,19.284,26.769C2248.264,483.977,2249.837,486.158,2251.418,488.34z"/>
		<path fill="#FF3C00" d="M2277.692,506.595c-4.995-9.448-12.188-18.554-21.01-27.327c-1.007,4.093-1.986,8.191-2.933,12.296
			c1.363,1.884,2.733,3.769,4.092,5.653c7.698,10.684,15.316,21.606,22.851,32.625c1.085-2.423,2.133-4.849,3.163-7.274
			C2282.284,516.725,2280.23,511.397,2277.692,506.595z"/>
		<path fill="#FF3C00" d="M2142.317,250.728c0.854,46.106,15.135,87.569,35.688,126.459c7.442-69.679-1.502-146.905-19.447-214.735
			C2148.496,191.234,2141.76,220.62,2142.317,250.728z"/>
		<path fill="#FF3C00" d="M2240.14,18.328c-4.62,23.744-9.398,48.296-10.694,72.572c-4.491,84.073-1.65,159.678,8.443,224.714
			c6.66,42.915,15.669,83.595,26.362,122.96c0.524-1.929,1.05-3.86,1.572-5.779c9.263-33.999,18.841-69.154,23.517-103.975
			c14.722-109.655,8.172-220.423,1.136-327.82h-47.013C2242.381,6.807,2241.257,12.585,2240.14,18.328z"/>
		<path fill="#FF3C00" d="M1658.78,298.998c-7.849-13.141-15.684-26.451-22.87-39.966c-11.3,10.507-24.036,19.561-38.317,27.23
			c-0.1,0.824-0.196,1.647-0.304,2.474c8.057,1.37,16.284,2.713,24.653,4.078C1634.062,294.792,1646.398,296.806,1658.78,298.998z"
			/>
		<path fill="#FF3C00" d="M2163.591,447.681c2.794-8.691,5.206-17.655,7.276-26.831c-22.129-11.785-45.02-22.735-66.238-32.882
			c-14.846-7.099-29.176-13.954-41.937-20.476c25.188,49.817,49.228,100.054,72.552,150.108
			C2145.971,495.117,2155.796,471.928,2163.591,447.681z"/>
		<path fill="#FF3C00" d="M2279.237,533.038c-7.855-11.511-15.799-22.923-23.829-34.067c-0.842-1.169-1.693-2.337-2.537-3.506
			c-1.043,4.645-2.057,9.291-2.991,13.938c-6.394,31.774-11.315,63.392-15.125,94.838c12.567-15.32,24.204-31.406,34.156-50.233
			C2272.601,547.027,2276.031,540.037,2279.237,533.038z"/>
		<path fill="#FF3C00" d="M1903.208,157.897c3.283,13.523,6.846,26.188,10.758,38.099c-5.876-44.086-13.7-89.002-24.917-132.333
			C1890.84,94.832,1895.535,126.29,1903.208,157.897z"/>
		<path fill="#FF3C00" d="M1904.646,86.299c-4.06-7.149-8.126-14.296-12.195-21.442c12.177,47.519,20.329,96.869,26.322,144.902
			c6.453,17.41,13.798,33.13,22.293,47.514C1926.785,200.61,1914.206,143.558,1904.646,86.299z"/>
		<path fill="#FF3C00" d="M1858.533,403.354c12.162,22.136,20.338,43.021,24.709,63.138c1.63-2.305,3.28-4.626,4.947-6.97
			c15.033-21.135,30.58-42.988,37.559-63.963c8.526-25.628,4.169-60.57,0.325-91.398c-0.996-7.985-1.937-15.527-2.583-22.443
			c-2.167-23.169-4.641-47.084-7.662-71.335c-5.793-15.652-10.929-32.801-15.536-51.777c-8.663-35.684-13.63-71.105-14.909-106.149
			c-9.791-17.167-19.602-34.323-29.435-51.456h-133.188c-0.515,5.284-1.062,10.574-1.65,15.87
			c10.656,20.82,21.679,40.917,32.47,60.561c45.037,81.993,87.577,159.438,89.451,264.611c0.216,12.136-0.804,23.934-2.56,35.472
			C1847.259,385.304,1853.326,393.876,1858.533,403.354z"/>
		<path fill="#FF3C00" d="M1837.859,374.594c1.509-10.607,2.369-21.42,2.172-32.499c-1.86-104.432-44.227-181.562-89.081-263.22
			c-10.107-18.401-20.423-37.193-30.452-56.618c-3.61,31.177-8.537,62.544-15.274,93.955
			c-11.092,51.71-26.029,89.117-47.007,117.722c-6.084,8.296-12.757,15.943-20.043,22.964c7.668,14.479,16.107,28.734,24.52,42.799
			C1729.053,311.65,1796.191,329.211,1837.859,374.594z"/>
		<path fill="#FF3C00" d="M2009.465,331.628c1.74-3.874,3.331-7.845,4.752-11.925c2.287-6.567,4.269-13.155,5.977-19.756
			c-1.057-4.514-2.155-9.002-3.283-13.473c-35.336-63.812-71.203-127.795-107.43-191.653
			c9.857,57.509,22.664,114.737,37.045,171.275C1962.956,291.41,1983.412,312.519,2009.465,331.628z"/>
		<path fill="#FF3C00" d="M2171.544,417.814c2.483-11.484,4.43-23.298,5.87-35.355c-21.844-40.344-37.203-83.443-38.097-131.676
			c-0.592-31.987,6.903-63.063,17.866-93.428c-10.062-36.841-22.756-70.745-36.877-98.93c-9.971-19.9-20.501-38.941-30.947-57.425
			h-124.128c-0.079,0.871-0.161,1.743-0.233,2.611c20.451,41.332,44.007,93.795,56.753,148.315
			c12.145,51.947,13.125,98.839,2.914,142.494c12.187,22.701,24.076,45.557,35.72,68.508c13.614,7.064,29.266,14.551,45.538,22.333
			C2126.941,395.312,2149.59,406.146,2171.544,417.814z"/>
		<path fill="#FF3C00" d="M2055.809,360.527c-10.518-20.675-21.25-41.262-32.208-61.729c-0.104,0.41-0.205,0.819-0.311,1.228
			c3.589,15.405,6.717,31.079,9.142,47.066c3.386,2.102,6.851,4.186,10.4,6.253C2046.842,355.681,2051.193,358.078,2055.809,360.527
			z"/>
		<path fill="#FF3C00" d="M2021.628,306.199c-1.383,4.869-2.909,9.698-4.578,14.491c-1.521,4.367-3.237,8.605-5.111,12.736
			c5.466,3.93,11.175,7.776,17.138,11.56C2027.019,331.86,2024.492,318.939,2021.628,306.199z"/>
	</g>
</g>
</svg>
